<svg width="24" height="24" viewBox="0 0 24 24" fill="none" xmlns="http://www.w3.org/2000/svg">
<path d="M22 10.9999C22.0028 10.2951 21.8193 9.60203 21.4681 8.99092C21.1169 8.37981 20.6104 7.87235 20 7.51993C20.0151 7.34693 20.0151 7.17294 20 6.99993C20 6.20428 19.6839 5.44122 19.1213 4.87861C18.5587 4.316 17.7956 3.99993 17 3.99993H16.82C16.6535 3.53825 16.3762 3.12447 16.0125 2.79488C15.6489 2.46529 15.2099 2.22997 14.7341 2.10954C14.2583 1.98911 13.7602 1.98725 13.2835 2.10413C12.8068 2.22102 12.3661 2.45306 12 2.77993C11.6339 2.45306 11.1932 2.22102 10.7165 2.10413C10.2398 1.98725 9.74171 1.98911 9.26592 2.10954C8.79012 2.22997 8.35113 2.46529 7.98746 2.79488C7.62378 3.12447 7.34653 3.53825 7.18 3.99993H7C6.20435 3.99993 5.44129 4.316 4.87868 4.87861C4.31607 5.44122 4 6.20428 4 6.99993C3.98495 7.17294 3.98495 7.34693 4 7.51993C3.43246 7.84073 2.95193 8.29538 2.60024 8.84431C2.24855 9.39323 2.03636 10.0198 1.98214 10.6695C1.92792 11.3191 2.03331 11.9722 2.28914 12.5719C2.54497 13.1715 2.94349 13.6995 3.45 14.1099C3.12227 14.7212 2.95911 15.4072 2.97654 16.1005C2.99398 16.7939 3.19139 17.4708 3.54942 18.0648C3.90745 18.6589 4.41379 19.1496 5.01873 19.4888C5.62367 19.8281 6.30643 20.0042 7 19.9999H7.18C7.34653 20.4616 7.62378 20.8754 7.98746 21.205C8.35113 21.5346 8.79012 21.7699 9.26592 21.8903C9.74171 22.0108 10.2398 22.0126 10.7165 21.8957C11.1932 21.7789 11.6339 21.5468 12 21.2199C12.3661 21.5468 12.8068 21.7789 13.2835 21.8957C13.7602 22.0126 14.2583 22.0108 14.7341 21.8903C15.2099 21.7699 15.6489 21.5346 16.0125 21.205C16.3762 20.8754 16.6535 20.4616 16.82 19.9999H17C17.6893 19.9956 18.3658 19.8131 18.9639 19.4703C19.562 19.1275 20.0613 18.636 20.4134 18.0434C20.7656 17.4508 20.9586 16.7772 20.9738 16.088C20.9889 15.3989 20.8257 14.7175 20.5 14.1099C20.9664 13.7365 21.3433 13.2633 21.6029 12.7251C21.8624 12.1869 21.9981 11.5974 22 10.9999ZM11 8.54993C10.7822 8.42536 10.5548 8.31836 10.32 8.22993C10.068 8.14506 9.79269 8.16376 9.55452 8.28191C9.31635 8.40006 9.13487 8.60798 9.05 8.85993C8.96513 9.11189 8.98383 9.38724 9.10197 9.62541C9.22012 9.86358 9.42804 10.0451 9.68 10.1299C10.0649 10.2691 10.3979 10.523 10.634 10.8574C10.87 11.1918 10.9978 11.5906 11 11.9999V13.5499C10.7822 13.4254 10.5548 13.3184 10.32 13.2299C10.068 13.1451 9.79269 13.1638 9.55452 13.2819C9.31635 13.4001 9.13487 13.608 9.05 13.8599C8.96513 14.1119 8.98383 14.3872 9.10197 14.6254C9.22012 14.8636 9.42804 15.0451 9.68 15.1299C10.0649 15.2691 10.3979 15.523 10.634 15.8574C10.87 16.1918 10.9978 16.5906 11 16.9999V18.9999C11 19.2652 10.8946 19.5195 10.7071 19.707C10.5196 19.8946 10.2652 19.9999 10 19.9999C9.80653 19.9987 9.61759 19.9413 9.45607 19.8348C9.29454 19.7283 9.16738 19.5773 9.09 19.3999C9.25768 19.3015 9.41809 19.1913 9.57 19.0699C9.67112 18.9859 9.75469 18.8827 9.81595 18.7664C9.87721 18.6501 9.91495 18.5228 9.92702 18.3919C9.93909 18.2609 9.92526 18.1289 9.8863 18.0033C9.84735 17.8777 9.78405 17.7611 9.7 17.6599C9.61595 17.5588 9.51281 17.4752 9.39647 17.414C9.28013 17.3527 9.15285 17.315 9.02192 17.3029C8.89099 17.2908 8.75897 17.3047 8.63338 17.3436C8.5078 17.3826 8.39112 17.4459 8.29 17.5299C7.92893 17.8339 7.47199 18.0004 7 17.9999C6.46957 17.9999 5.96086 17.7892 5.58579 17.4141C5.21071 17.0391 5 16.5304 5 15.9999C5.00478 15.6235 5.1157 15.2561 5.32 14.9399C5.54442 14.9802 5.772 15.0003 6 14.9999C6.26522 14.9999 6.51957 14.8946 6.70711 14.707C6.89464 14.5195 7 14.2651 7 13.9999C7 13.7347 6.89464 13.4804 6.70711 13.2928C6.51957 13.1053 6.26522 12.9999 6 12.9999C5.76379 13.0013 5.52952 12.9572 5.31 12.8699C4.95034 12.7402 4.6354 12.5101 4.40249 12.2069C4.16958 11.9037 4.02845 11.5401 3.99583 11.1592C3.96321 10.7783 4.04046 10.396 4.21843 10.0576C4.3964 9.71919 4.66763 9.43891 5 9.24993C5.1421 9.38067 5.2961 9.49785 5.46 9.59993C5.69074 9.73254 5.9647 9.76806 6.22163 9.69867C6.47855 9.62928 6.69739 9.46067 6.83 9.22993C6.96261 8.99919 6.99812 8.72523 6.92874 8.4683C6.85935 8.21138 6.69074 7.99254 6.46 7.85993C6.31923 7.78228 6.20182 7.66833 6.12 7.52993C6.02755 7.36938 5.98572 7.18465 6 6.99993C6 6.73472 6.10536 6.48036 6.29289 6.29283C6.48043 6.10529 6.73478 5.99993 7 5.99993C7.06966 5.99022 7.14034 5.99022 7.21 5.99993C7.26294 6.1606 7.32641 6.31761 7.4 6.46993C7.46533 6.58452 7.55268 6.68505 7.65703 6.76574C7.76138 6.84642 7.88066 6.90566 8.008 6.94005C8.13534 6.97445 8.26822 6.9833 8.399 6.96612C8.52978 6.94894 8.65587 6.90605 8.77 6.83993C8.99171 6.70654 9.15308 6.49241 9.22021 6.24253C9.28734 5.99265 9.25501 5.72647 9.13 5.49993C9.04609 5.34654 9.00143 5.17477 9 4.99993C9 4.73472 9.10536 4.48036 9.29289 4.29283C9.48043 4.10529 9.73478 3.99993 10 3.99993C10.2652 3.99993 10.5196 4.10529 10.7071 4.29283C10.8946 4.48036 11 4.73472 11 4.99993V8.54993ZM18.69 12.8699C18.4705 12.9572 18.2362 13.0013 18 12.9999C17.7348 12.9999 17.4804 13.1053 17.2929 13.2928C17.1054 13.4804 17 13.7347 17 13.9999C17 14.2651 17.1054 14.5195 17.2929 14.707C17.4804 14.8946 17.7348 14.9999 18 14.9999C18.228 15.0003 18.4556 14.9802 18.68 14.9399C18.8843 15.2561 18.9952 15.6235 19 15.9999C19 16.5304 18.7893 17.0391 18.4142 17.4141C18.0391 17.7892 17.5304 17.9999 17 17.9999C16.528 18.0004 16.0711 17.8339 15.71 17.5299C15.5058 17.3602 15.2425 17.2785 14.9781 17.3029C14.7136 17.3273 14.4697 17.4557 14.3 17.6599C14.1303 17.8641 14.0486 18.1274 14.073 18.3919C14.0974 18.6563 14.2258 18.9002 14.43 19.0699C14.5819 19.1913 14.7423 19.3015 14.91 19.3999C14.8326 19.5773 14.7055 19.7283 14.5439 19.8348C14.3824 19.9413 14.1935 19.9987 14 19.9999C13.7348 19.9999 13.4804 19.8946 13.2929 19.707C13.1054 19.5195 13 19.2652 13 18.9999V16.9999C13.0022 16.5906 13.13 16.1918 13.366 15.8574C13.6021 15.523 13.9351 15.2691 14.32 15.1299C14.572 15.0451 14.7799 14.8636 14.898 14.6254C15.0162 14.3872 15.0349 14.1119 14.95 13.8599C14.8651 13.608 14.6836 13.4001 14.4455 13.2819C14.2073 13.1638 13.932 13.1451 13.68 13.2299C13.4452 13.3184 13.2178 13.4254 13 13.5499V11.9999C13.0022 11.5906 13.13 11.1918 13.366 10.8574C13.6021 10.523 13.9351 10.2691 14.32 10.1299C14.572 10.0451 14.7799 9.86358 14.898 9.62541C15.0162 9.38724 15.0349 9.11189 14.95 8.85993C14.8651 8.60798 14.6836 8.40006 14.4455 8.28191C14.2073 8.16376 13.932 8.14506 13.68 8.22993C13.4452 8.31836 13.2178 8.42536 13 8.54993V4.99993C13 4.73472 13.1054 4.48036 13.2929 4.29283C13.4804 4.10529 13.7348 3.99993 14 3.99993C14.2652 3.99993 14.5196 4.10529 14.7071 4.29283C14.8946 4.48036 15 4.73472 15 4.99993C14.9986 5.17477 14.9539 5.34654 14.87 5.49993C14.8035 5.61347 14.76 5.73902 14.7421 5.86939C14.7242 5.99976 14.7322 6.13239 14.7656 6.25966C14.7991 6.38694 14.8573 6.50636 14.937 6.61108C15.0167 6.71581 15.1162 6.80377 15.23 6.86993C15.3441 6.93605 15.4702 6.97894 15.601 6.99612C15.7318 7.0133 15.8647 7.00445 15.992 6.97005C16.1193 6.93566 16.2386 6.87642 16.343 6.79574C16.4473 6.71505 16.5347 6.61452 16.6 6.49993C16.6748 6.33787 16.7383 6.1708 16.79 5.99993C16.8597 5.99022 16.9303 5.99022 17 5.99993C17.2652 5.99993 17.5196 6.10529 17.7071 6.29283C17.8946 6.48036 18 6.73472 18 6.99993C17.9985 7.19597 17.9394 7.38723 17.83 7.54993C17.7482 7.6797 17.6346 7.78641 17.5 7.85993C17.2693 7.99254 17.1007 8.21138 17.0313 8.4683C16.9619 8.72523 16.9974 8.99919 17.13 9.22993C17.2626 9.46067 17.4814 9.62928 17.7384 9.69867C17.9953 9.76806 18.2693 9.73254 18.5 9.59993C18.6795 9.50284 18.8473 9.3854 19 9.24993C19.3335 9.43557 19.6069 9.71276 19.788 10.0488C19.969 10.3848 20.0501 10.7656 20.0217 11.1462C19.9934 11.5268 19.8566 11.8914 19.6278 12.1968C19.3989 12.5023 19.0873 12.7358 18.73 12.8699H18.69Z" fill="url(#paint0_linear_27_419)"/>
<defs>
<linearGradient id="paint0_linear_27_419" x1="11.9842" y1="2.01782" x2="11.9842" y2="21.982" gradientUnits="userSpaceOnUse">
<stop stop-color="#FF4061"/>
<stop offset="1" stop-color="#FF95A7"/>
</linearGradient>
</defs>
</svg>
