<svg width="31" height="30" viewBox="0 0 31 30" fill="none" xmlns="http://www.w3.org/2000/svg">
<mask id="path-1-inside-1_163_79" fill="white">
<path d="M0.698227 15.0294C0.698227 6.76798 7.39541 0.0708008 15.6568 0.0708008V0.0708008C23.9182 0.0708008 30.6154 6.76798 30.6154 15.0294V15.0294C30.6154 23.2908 23.9182 29.988 15.6568 29.988V29.988C7.39541 29.988 0.698227 23.2908 0.698227 15.0294V15.0294Z"/>
</mask>
<path d="M15.6568 29.988V29.053C7.91175 29.053 1.63314 22.7744 1.63314 15.0294H0.698227H-0.236684C-0.236684 23.8071 6.87907 30.9229 15.6568 30.9229V29.988ZM30.6154 15.0294H29.6805C29.6805 22.7744 23.4019 29.053 15.6568 29.053V29.988V30.9229C24.4345 30.9229 31.5503 23.8071 31.5503 15.0294H30.6154ZM15.6568 0.0708008V1.00571C23.4019 1.00571 29.6805 7.28432 29.6805 15.0294H30.6154H31.5503C31.5503 6.25165 24.4345 -0.86411 15.6568 -0.86411V0.0708008ZM15.6568 0.0708008V-0.86411C6.87907 -0.86411 -0.236684 6.25165 -0.236684 15.0294H0.698227H1.63314C1.63314 7.28432 7.91175 1.00571 15.6568 1.00571V0.0708008Z" fill="url(#paint0_linear_163_79)" mask="url(#path-1-inside-1_163_79)"/>
<path fill-rule="evenodd" clip-rule="evenodd" d="M20.6914 9.84846C21.2095 9.31705 22.0962 9.27398 22.6719 9.75224C23.2475 10.2305 23.2942 11.049 22.7761 11.5804L14.3619 20.2103C13.8244 20.7616 12.896 20.7841 12.3279 20.2597L8.58826 16.8077C8.04061 16.3022 8.04061 15.4826 8.58826 14.977C9.13592 14.4715 10.0239 14.4715 10.5715 14.977L13.266 17.4642L20.6914 9.84846Z" fill="#472200"/>
<defs>
<linearGradient id="paint0_linear_163_79" x1="15.6568" y1="0.0708008" x2="15.6568" y2="29.988" gradientUnits="userSpaceOnUse">
<stop stop-color="#F4F4F5"/>
<stop offset="1" stop-color="#C8D6E5"/>
</linearGradient>
</defs>
</svg>
