<svg width="32" height="32" viewBox="0 0 32 32" fill="none" xmlns="http://www.w3.org/2000/svg">
<path d="M14.6667 2.66663C12.0296 2.66663 9.45172 3.44861 7.25906 4.9137C5.06641 6.37878 3.35744 8.46116 2.34827 10.8975C1.33911 13.3339 1.07506 16.0147 1.58953 18.6012C2.104 21.1876 3.37388 23.5633 5.23858 25.428C7.10328 27.2927 9.47905 28.5626 12.0655 29.0771C14.6519 29.5916 17.3328 29.3275 19.7691 28.3184C22.2055 27.3092 24.2878 25.6002 25.7529 23.4076C27.218 21.2149 28 18.637 28 16C28 14.249 27.6551 12.5152 26.9851 10.8975C26.315 9.27984 25.3329 7.80998 24.0948 6.57187C22.8566 5.33375 21.3868 4.35163 19.7691 3.68157C18.1514 3.0115 16.4176 2.66663 14.6667 2.66663ZM14.6667 26.6666C12.557 26.6666 10.4947 26.041 8.74058 24.869C6.98646 23.6969 5.61929 22.031 4.81195 20.0819C4.00462 18.1328 3.79338 15.9881 4.20496 13.919C4.61653 11.8499 5.63244 9.94925 7.1242 8.45749C8.61596 6.96573 10.5166 5.94983 12.5857 5.53825C14.6548 5.12667 16.7995 5.33791 18.7486 6.14524C20.6977 6.95258 22.3636 8.31975 23.5357 10.0739C24.7077 11.828 25.3333 13.8903 25.3333 16C25.3333 18.8289 24.2095 21.542 22.2091 23.5424C20.2088 25.5428 17.4956 26.6666 14.6667 26.6666ZM14.6667 7.99996C14.313 7.99996 13.9739 8.14044 13.7239 8.39048C13.4738 8.64053 13.3333 8.97967 13.3333 9.33329V15.2266L10.5333 16.84C10.2765 16.9855 10.0752 17.2122 9.96104 17.4845C9.84689 17.7567 9.82633 18.0592 9.90259 18.3444C9.97885 18.6296 10.1476 18.8814 10.3824 19.0604C10.6172 19.2394 10.9048 19.3354 11.2 19.3333C11.4336 19.3349 11.6635 19.2751 11.8667 19.16L15.3333 17.16L15.4533 17.04L15.6667 16.8666C15.7188 16.8006 15.7635 16.7291 15.8 16.6533C15.8435 16.5817 15.8792 16.5057 15.9067 16.4266C15.9429 16.3418 15.9654 16.2518 15.9733 16.16L16 16V9.33329C16 8.97967 15.8595 8.64053 15.6095 8.39048C15.3594 8.14044 15.0203 7.99996 14.6667 7.99996Z" fill="#F0B000"/>
</svg>
