<svg width="31" height="31" viewBox="0 0 31 31" fill="none" xmlns="http://www.w3.org/2000/svg">
<mask id="path-1-inside-1_163_21" fill="white">
<path d="M0.510864 15.6446C0.510864 7.38322 7.20805 0.686035 15.4694 0.686035V0.686035C23.7308 0.686035 30.428 7.38322 30.428 15.6446V15.6446C30.428 23.906 23.7308 30.6032 15.4694 30.6032V30.6032C7.20805 30.6032 0.510864 23.906 0.510864 15.6446V15.6446Z"/>
</mask>
<path d="M15.4694 30.6032V29.6683C7.72438 29.6683 1.44578 23.3897 1.44578 15.6446H0.510864H-0.424047C-0.424047 24.4224 6.69171 31.5381 15.4694 31.5381V30.6032ZM30.428 15.6446H29.4931C29.4931 23.3897 23.2145 29.6683 15.4694 29.6683V30.6032V31.5381C24.2472 31.5381 31.3629 24.4224 31.3629 15.6446H30.428ZM15.4694 0.686035V1.62095C23.2145 1.62095 29.4931 7.89955 29.4931 15.6446H30.428H31.3629C31.3629 6.86688 24.2472 -0.248876 15.4694 -0.248876V0.686035ZM15.4694 0.686035V-0.248876C6.69171 -0.248876 -0.424047 6.86688 -0.424047 15.6446H0.510864H1.44578C1.44578 7.89955 7.72438 1.62095 15.4694 1.62095V0.686035Z" fill="url(#paint0_linear_163_21)" mask="url(#path-1-inside-1_163_21)"/>
<path fill-rule="evenodd" clip-rule="evenodd" d="M20.504 10.4637C21.0221 9.93229 21.9088 9.88921 22.4845 10.3675C23.0602 10.8457 23.1069 11.6642 22.5887 12.1956L14.1746 20.8256C13.6371 21.3768 12.7087 21.3994 12.1406 20.8749L8.40092 17.423C7.85326 16.9174 7.85326 16.0978 8.40092 15.5923C8.94857 15.0867 9.8365 15.0867 10.3842 15.5923L13.0786 18.0795L20.504 10.4637Z" fill="#472200"/>
<defs>
<linearGradient id="paint0_linear_163_21" x1="15.4694" y1="0.686035" x2="15.4694" y2="30.6032" gradientUnits="userSpaceOnUse">
<stop stop-color="#F4F4F5"/>
<stop offset="1" stop-color="#C8D6E5"/>
</linearGradient>
</defs>
</svg>
