<svg width="32" height="32" viewBox="0 0 32 32" fill="none" xmlns="http://www.w3.org/2000/svg">
<path d="M11.1467 20.44C10.8779 20.6657 10.709 20.9882 10.6766 21.3377C10.6441 21.6871 10.7508 22.0353 10.9734 22.3066C11.0853 22.4416 11.2228 22.5532 11.3779 22.635C11.533 22.7168 11.7028 22.7672 11.8774 22.7833C12.052 22.7994 12.2281 22.7809 12.3956 22.7289C12.5631 22.6768 12.7186 22.5922 12.8534 22.48C13.7447 21.7613 14.8551 21.3694 16 21.3694C17.145 21.3694 18.2554 21.7613 19.1467 22.48C19.3866 22.6787 19.6885 22.7872 20 22.7866C20.2715 22.7839 20.5356 22.6985 20.7572 22.5417C20.9787 22.3848 21.1472 22.1641 21.2399 21.909C21.3327 21.6539 21.3454 21.3766 21.2763 21.1141C21.2072 20.8515 21.0597 20.6164 20.8534 20.44C19.4775 19.334 17.7652 18.7312 16 18.7312C14.2348 18.7312 12.5225 19.334 11.1467 20.44ZM12.28 14.0533C12.5298 14.3016 12.8678 14.441 13.22 14.441C13.5723 14.441 13.9102 14.3016 14.16 14.0533C14.4084 13.8035 14.5478 13.4655 14.5478 13.1133C14.5478 12.761 14.4084 12.4231 14.16 12.1733C13.397 11.4493 12.3852 11.0457 11.3334 11.0457C10.2815 11.0457 9.26973 11.4493 8.50669 12.1733C8.36712 12.2928 8.25376 12.4399 8.17373 12.6053C8.09369 12.7708 8.04872 12.9509 8.04163 13.1346C8.03454 13.3182 8.06548 13.5013 8.13251 13.6724C8.19954 13.8435 8.30122 13.9989 8.43116 14.1288C8.5611 14.2588 8.7165 14.3604 8.8876 14.4275C9.0587 14.4945 9.24181 14.5254 9.42543 14.5184C9.60906 14.5113 9.78923 14.4663 9.95465 14.3863C10.1201 14.3062 10.2672 14.1929 10.3867 14.0533C10.5106 13.9283 10.6581 13.8291 10.8206 13.7614C10.9831 13.6937 11.1573 13.6589 11.3334 13.6589C11.5094 13.6589 11.6837 13.6937 11.8461 13.7614C12.0086 13.8291 12.1561 13.9283 12.28 14.0533ZM16 2.66663C13.3629 2.66663 10.7851 3.44861 8.59242 4.9137C6.39977 6.37878 4.6908 8.46116 3.68163 10.8975C2.67246 13.3339 2.40842 16.0147 2.92289 18.6012C3.43736 21.1876 4.70724 23.5633 6.57194 25.428C8.43664 27.2927 10.8124 28.5626 13.3988 29.0771C15.9852 29.5916 18.6661 29.3275 21.1025 28.3184C23.5388 27.3092 25.6212 25.6002 27.0863 23.4076C28.5514 21.2149 29.3334 18.637 29.3334 16C29.3334 14.249 28.9885 12.5152 28.3184 10.8975C27.6484 9.27984 26.6662 7.80998 25.4281 6.57187C24.19 5.33375 22.7201 4.35163 21.1025 3.68157C19.4848 3.0115 17.751 2.66663 16 2.66663ZM16 26.6666C13.8904 26.6666 11.8281 26.041 10.0739 24.869C8.31982 23.6969 6.95265 22.031 6.14531 20.0819C5.33798 18.1328 5.12674 15.9881 5.53832 13.919C5.94989 11.8499 6.96579 9.94925 8.45755 8.45749C9.94931 6.96573 11.8499 5.94983 13.9191 5.53825C15.9882 5.12667 18.1329 5.33791 20.082 6.14524C22.0311 6.95258 23.697 8.31975 24.869 10.0739C26.0411 11.828 26.6667 13.8903 26.6667 16C26.6667 18.8289 25.5429 21.542 23.5425 23.5424C21.5421 25.5428 18.829 26.6666 16 26.6666ZM23.4934 12.1733C22.7303 11.4493 21.7186 11.0457 20.6667 11.0457C19.6148 11.0457 18.6031 11.4493 17.84 12.1733C17.6216 12.4284 17.5075 12.7565 17.5204 13.092C17.5334 13.4276 17.6725 13.7459 17.9099 13.9834C18.1474 14.2208 18.4657 14.3599 18.8013 14.3729C19.1369 14.3859 19.465 14.2717 19.72 14.0533C19.844 13.9283 19.9914 13.8291 20.1539 13.7614C20.3164 13.6937 20.4907 13.6589 20.6667 13.6589C20.8427 13.6589 21.017 13.6937 21.1795 13.7614C21.3419 13.8291 21.4894 13.9283 21.6134 14.0533C21.8632 14.3016 22.2011 14.441 22.5534 14.441C22.9056 14.441 23.2435 14.3016 23.4934 14.0533C23.7417 13.8035 23.8811 13.4655 23.8811 13.1133C23.8811 12.761 23.7417 12.4231 23.4934 12.1733Z" fill="#F0B000"/>
</svg>
