<svg width="258" height="200" viewBox="0 0 258 200" fill="none" xmlns="http://www.w3.org/2000/svg">
<g clip-path="url(#clip0_27_175)">
<path d="M24.7866 199.491C24.7759 199.614 24.8142 199.737 24.8932 199.832C24.9721 199.928 25.0854 199.988 25.2084 200H235.472C235.592 199.979 235.7 199.916 235.777 199.823C235.855 199.73 235.898 199.612 235.898 199.491C235.898 199.37 235.855 199.252 235.777 199.159C235.7 199.066 235.592 199.003 235.472 198.982H25.2084C25.0854 198.994 24.9721 199.054 24.8932 199.15C24.8142 199.245 24.7759 199.368 24.7866 199.491Z" fill="#D6D6E3"/>
<path d="M137.77 149.268C137.464 151.381 136.41 153.312 134.799 154.708C133.189 156.105 131.13 156.874 129 156.874C126.87 156.874 124.812 156.105 123.201 154.708C121.59 153.312 120.536 151.381 120.23 149.268H97.7933V198.982H160.207V149.268H137.77Z" fill="#D6D6E3"/>
<path d="M254.521 150.541H3.47944C2.55692 150.54 1.67246 150.173 1.02014 149.519C0.367823 148.865 0.000939123 147.979 0 147.055L0 3.48669C0.000939123 2.56225 0.367823 1.67595 1.02014 1.02227C1.67246 0.368591 2.55692 0.000941081 3.47944 0H254.521C255.443 0.00119765 256.327 0.368961 256.979 1.02261C257.631 1.67626 257.998 2.56242 257.999 3.48669V147.055C257.998 147.979 257.631 148.865 256.979 149.519C256.327 150.173 255.442 150.54 254.52 150.541H254.521Z" fill="#090814"/>
<path d="M252.141 5.81812H6.47833V144.723H252.141V5.81812Z" fill="white"/>
<path d="M49.3423 13.5732H17.0924C16.38 13.5732 15.8024 14.152 15.8024 14.8659V128.622C15.8024 129.336 16.38 129.915 17.0924 129.915H49.3423C50.0547 129.915 50.6323 129.336 50.6323 128.622V14.8659C50.6323 14.152 50.0547 13.5732 49.3423 13.5732Z" fill="url(#paint0_linear_27_175)"/>
<path d="M29.9924 18.4207H36.4423C36.9555 18.4207 37.4477 18.6249 37.8106 18.9886C38.1735 19.3522 38.3773 19.8454 38.3773 20.3597V21.6524C38.3773 22.1666 38.1735 22.6598 37.8106 23.0235C37.4477 23.3871 36.9555 23.5914 36.4423 23.5914H29.9924C29.4792 23.5914 28.987 23.3871 28.6241 23.0235C28.2612 22.6598 28.0574 22.1666 28.0574 21.6524V20.3597C28.0574 19.8454 28.2612 19.3522 28.6241 18.9886C28.987 18.6249 29.4792 18.4207 29.9924 18.4207Z" fill="white"/>
<path d="M21.6074 119.573H44.8274C45.1695 119.573 45.4976 119.709 45.7395 119.952C45.9814 120.194 46.1173 120.523 46.1173 120.866V123.451C46.1173 123.794 45.9814 124.123 45.7395 124.365C45.4976 124.608 45.1695 124.744 44.8274 124.744H21.6074C21.2653 124.744 20.9372 124.608 20.6953 124.365C20.4534 124.123 20.3174 123.794 20.3174 123.451V120.866C20.3174 120.523 20.4534 120.194 20.6953 119.952C20.9372 119.709 21.2653 119.573 21.6074 119.573Z" fill="white"/>
<path d="M62.5648 13.5732H85.7847C86.1268 13.5732 86.4549 13.7094 86.6969 13.9519C86.9388 14.1943 87.0747 14.5231 87.0747 14.8659V17.4513C87.0747 17.7941 86.9388 18.1229 86.6969 18.3654C86.4549 18.6078 86.1268 18.744 85.7847 18.744H62.5648C62.2226 18.744 61.8945 18.6078 61.6526 18.3654C61.4107 18.1229 61.2748 17.7941 61.2748 17.4513V14.8659C61.2748 14.5231 61.4107 14.1943 61.6526 13.9519C61.8945 13.7094 62.2226 13.5732 62.5648 13.5732Z" fill="#F2F2F2"/>
<path d="M110.295 25.8538H63.8548C62.4299 25.8538 61.2748 27.0113 61.2748 28.4391V51.7075C61.2748 53.1353 62.4299 54.2928 63.8548 54.2928H110.295C111.719 54.2928 112.875 53.1353 112.875 51.7075V28.4391C112.875 27.0113 111.719 25.8538 110.295 25.8538Z" fill="url(#paint1_linear_27_175)"/>
<path d="M43.5374 28.7622H22.8974C21.4725 28.7622 20.3174 29.9197 20.3174 31.3476C20.3174 32.7754 21.4725 33.9329 22.8974 33.9329H43.5374C44.9622 33.9329 46.1173 32.7754 46.1173 31.3476C46.1173 29.9197 44.9622 28.7622 43.5374 28.7622Z" fill="white"/>
<path d="M226.394 108.585H66.4348C63.585 108.585 61.2748 110.9 61.2748 113.756V124.744C61.2748 127.6 63.585 129.915 66.4348 129.915H226.394C229.244 129.915 231.554 127.6 231.554 124.744V113.756C231.554 110.9 229.244 108.585 226.394 108.585Z" fill="#F2F2F2"/>
<path d="M207.044 13.5732H230.264C230.606 13.5732 230.934 13.7094 231.176 13.9519C231.418 14.1943 231.554 14.5231 231.554 14.8659V17.4513C231.554 17.7941 231.418 18.1229 231.176 18.3654C230.934 18.6078 230.606 18.744 230.264 18.744H207.044C206.702 18.744 206.374 18.6078 206.132 18.3654C205.89 18.1229 205.754 17.7941 205.754 17.4513V14.8659C205.754 14.5231 205.89 14.1943 206.132 13.9519C206.374 13.7094 206.702 13.5732 207.044 13.5732Z" fill="url(#paint2_linear_27_175)"/>
<path opacity="0.149" d="M43.5374 36.5183H22.8974C21.4725 36.5183 20.3174 37.6758 20.3174 39.1037C20.3174 40.5315 21.4725 41.6891 22.8974 41.6891H43.5374C44.9622 41.6891 46.1173 40.5315 46.1173 39.1037C46.1173 37.6758 44.9622 36.5183 43.5374 36.5183Z" fill="white"/>
<path opacity="0.149" d="M43.5374 44.2744H22.8974C21.4725 44.2744 20.3174 45.4319 20.3174 46.8598C20.3174 48.2876 21.4725 49.4452 22.8974 49.4452H43.5374C44.9622 49.4452 46.1173 48.2876 46.1173 46.8598C46.1173 45.4319 44.9622 44.2744 43.5374 44.2744Z" fill="white"/>
<path opacity="0.149" d="M43.5374 52.0305H22.8974C21.4725 52.0305 20.3174 53.188 20.3174 54.6159C20.3174 56.0437 21.4725 57.2013 22.8974 57.2013H43.5374C44.9622 57.2013 46.1173 56.0437 46.1173 54.6159C46.1173 53.188 44.9622 52.0305 43.5374 52.0305Z" fill="white"/>
<path opacity="0.149" d="M43.5374 59.7866H22.8974C21.4725 59.7866 20.3174 60.9441 20.3174 62.372C20.3174 63.7999 21.4725 64.9574 22.8974 64.9574H43.5374C44.9622 64.9574 46.1173 63.7999 46.1173 62.372C46.1173 60.9441 44.9622 59.7866 43.5374 59.7866Z" fill="white"/>
<path d="M228.974 25.8538H182.534C181.109 25.8538 179.954 27.0113 179.954 28.4391V51.7075C179.954 53.1353 181.109 54.2928 182.534 54.2928H228.974C230.399 54.2928 231.554 53.1353 231.554 51.7075V28.4391C231.554 27.0113 230.399 25.8538 228.974 25.8538Z" fill="url(#paint3_linear_27_175)"/>
<path d="M169.634 25.8538H123.195C121.77 25.8538 120.615 27.0113 120.615 28.4391V51.7075C120.615 53.1353 121.77 54.2928 123.195 54.2928H169.634C171.059 54.2928 172.214 53.1353 172.214 51.7075V28.4391C172.214 27.0113 171.059 25.8538 169.634 25.8538Z" fill="url(#paint4_linear_27_175)"/>
<path d="M226.394 83.3782H66.4348C63.585 83.3782 61.2748 85.6932 61.2748 88.5489V99.5367C61.2748 102.392 63.585 104.707 66.4348 104.707H226.394C229.244 104.707 231.554 102.392 231.554 99.5367V88.5489C231.554 85.6932 229.244 83.3782 226.394 83.3782Z" fill="#F2F2F2"/>
<path d="M226.394 58.1709H66.4348C63.585 58.1709 61.2748 60.4859 61.2748 63.3416V74.3295C61.2748 77.1852 63.585 79.5002 66.4348 79.5002H226.394C229.244 79.5002 231.554 77.1852 231.554 74.3295V63.3416C231.554 60.4859 229.244 58.1709 226.394 58.1709Z" fill="#F2F2F2"/>
</g>
<defs>
<linearGradient id="paint0_linear_27_175" x1="33.2174" y1="13.5732" x2="33.2174" y2="129.915" gradientUnits="userSpaceOnUse">
<stop stop-color="#FFD11C"/>
<stop offset="0.5" stop-color="#FF7523"/>
<stop offset="0.75" stop-color="#FF4061"/>
</linearGradient>
<linearGradient id="paint1_linear_27_175" x1="87.0747" y1="25.8538" x2="87.0747" y2="54.2928" gradientUnits="userSpaceOnUse">
<stop stop-color="#FFD11C"/>
<stop offset="0.5" stop-color="#FF7523"/>
<stop offset="0.75" stop-color="#FF4061"/>
</linearGradient>
<linearGradient id="paint2_linear_27_175" x1="218.654" y1="13.5732" x2="218.654" y2="18.744" gradientUnits="userSpaceOnUse">
<stop stop-color="#FFD11C"/>
<stop offset="0.5" stop-color="#FF7523"/>
<stop offset="0.75" stop-color="#FF4061"/>
</linearGradient>
<linearGradient id="paint3_linear_27_175" x1="205.754" y1="25.8538" x2="205.754" y2="54.2928" gradientUnits="userSpaceOnUse">
<stop stop-color="#FFD11C"/>
<stop offset="0.5" stop-color="#FF7523"/>
<stop offset="0.75" stop-color="#FF4061"/>
</linearGradient>
<linearGradient id="paint4_linear_27_175" x1="146.414" y1="25.8538" x2="146.414" y2="54.2928" gradientUnits="userSpaceOnUse">
<stop stop-color="#FFD11C"/>
<stop offset="0.5" stop-color="#FF7523"/>
<stop offset="0.75" stop-color="#FF4061"/>
</linearGradient>
<clipPath id="clip0_27_175">
<rect width="258" height="200" fill="white"/>
</clipPath>
</defs>
</svg>
