<svg width="224" height="200" viewBox="0 0 224 200" fill="none" xmlns="http://www.w3.org/2000/svg">
<path d="M192.865 181.82H38.6857C35.6406 181.816 32.7213 180.605 30.5681 178.451C28.415 176.298 27.2038 173.378 27.2004 170.332V35.6821C27.204 32.6368 28.4152 29.7172 30.5683 27.5638C32.7215 25.4104 35.6407 24.1991 38.6857 24.1956H192.865C195.91 24.199 198.829 25.4102 200.982 27.5636C203.136 29.717 204.347 32.6367 204.351 35.6821V170.333C204.347 173.379 203.136 176.298 200.982 178.452C198.829 180.605 195.91 181.816 192.865 181.82Z" fill="white"/>
<path d="M156.434 60.6426H80.7168C78.2426 60.6426 76.2368 62.6486 76.2368 65.1231V140.848C76.2368 143.323 78.2426 145.329 80.7168 145.329H156.434C158.908 145.329 160.914 143.323 160.914 140.848V65.1231C160.914 62.6486 158.908 60.6426 156.434 60.6426Z" fill="#F2F2F2"/>
<path d="M192.864 182.182H38.6854C35.5444 182.178 32.533 180.929 30.312 178.707C28.0909 176.486 26.8416 173.474 26.8381 170.333V35.6818C26.8418 32.5405 28.0911 29.5289 30.3122 27.3077C32.5332 25.0865 35.5445 23.8371 38.6854 23.8335H192.864C196.005 23.837 199.017 25.0864 201.238 27.3077C203.459 29.529 204.708 32.5407 204.712 35.6821V170.333C204.708 173.474 203.459 176.486 201.238 178.707C199.017 180.929 196.006 182.178 192.864 182.182ZM38.6854 24.5574C35.7365 24.5609 32.9093 25.734 30.8241 27.8195C28.7389 29.905 27.5659 32.7325 27.5625 35.6818V170.333C27.5658 173.283 28.7387 176.11 30.8241 178.196C32.9094 180.282 35.7368 181.455 38.686 181.458H192.864C195.814 181.455 198.641 180.282 200.727 178.196C202.812 176.11 203.985 173.283 203.989 170.333V35.6818C203.985 32.7324 202.812 29.9047 200.727 27.8191C198.642 25.7336 195.814 24.5604 192.865 24.5571L38.6854 24.5574Z" fill="#090814"/>
<path d="M9.88671 133.912C8.86164 133.908 7.86971 133.548 7.08102 132.893C6.29234 132.238 5.75604 131.33 5.56409 130.322L0.0808791 101.502C-0.137243 100.378 0.0918383 99.2131 0.71937 98.2555C1.3469 97.2979 2.32333 96.623 3.44086 96.3745L28.0021 90.8106C28.5741 90.6809 29.1662 90.6666 29.7438 90.7685C30.3214 90.8705 30.8728 91.0866 31.3659 91.4042C31.859 91.7219 32.2838 92.1347 32.6154 92.6185C32.9471 93.1023 33.1789 93.6474 33.2974 94.2219L39.2728 123.174C39.5041 124.312 39.2787 125.495 38.6454 126.469C38.012 127.442 37.0213 128.128 35.8871 128.378L10.8328 133.81C10.5223 133.877 10.2054 133.912 9.88755 133.912L9.88671 133.912Z" fill="#F2F2F2"/>
<path d="M7.99893 107.95C7.68309 107.95 7.37866 107.832 7.14535 107.619C6.91204 107.406 6.76667 107.114 6.73775 106.799C6.70883 106.485 6.79844 106.171 6.98902 105.919C7.1796 105.667 7.4574 105.495 7.76793 105.438L27.6243 101.727C27.9534 101.668 28.2926 101.742 28.5677 101.932C28.8429 102.122 29.0318 102.413 29.0932 102.742C29.1546 103.071 29.0835 103.41 28.8954 103.687C28.7074 103.963 28.4176 104.154 28.0894 104.218L8.23413 107.928C8.15695 107.943 8.07858 107.95 8.00005 107.95H7.99893Z" fill="url(#paint0_linear_27_198)"/>
<path d="M9.80884 115.551C9.49834 115.551 9.19865 115.437 8.96669 115.231C8.73472 115.024 8.58664 114.74 8.55057 114.431C8.5145 114.123 8.59296 113.812 8.77103 113.558C8.94911 113.303 9.2144 113.123 9.51652 113.051L28.2081 108.599C28.3708 108.558 28.5401 108.549 28.7061 108.574C28.8721 108.599 29.0316 108.656 29.1752 108.743C29.3188 108.83 29.4437 108.944 29.5427 109.08C29.6416 109.216 29.7126 109.37 29.7516 109.533C29.7906 109.696 29.7967 109.866 29.7696 110.031C29.7426 110.197 29.6828 110.356 29.5939 110.498C29.505 110.64 29.3887 110.764 29.2517 110.861C29.1148 110.958 28.9599 111.027 28.7961 111.063L10.1034 115.516C10.007 115.539 9.90822 115.551 9.80912 115.551L9.80884 115.551Z" fill="url(#paint1_linear_27_198)"/>
<path d="M11.0751 122.905C10.762 122.905 10.4601 122.789 10.2277 122.579C9.99521 122.369 9.84861 122.081 9.81616 121.769C9.7837 121.458 9.86768 121.146 10.0519 120.893C10.2361 120.639 10.5076 120.464 10.8138 120.399L23.5658 117.698C23.7285 117.664 23.8964 117.662 24.0599 117.692C24.2234 117.722 24.3793 117.785 24.5187 117.876C24.6582 117.966 24.7783 118.084 24.8724 118.221C24.9665 118.358 25.0327 118.512 25.0671 118.675C25.1016 118.838 25.1037 119.006 25.0732 119.169C25.0428 119.333 24.9805 119.488 24.8898 119.628C24.7991 119.767 24.6818 119.888 24.5447 119.982C24.4075 120.076 24.2532 120.142 24.0905 120.176L11.3391 122.877C11.2523 122.895 11.1638 122.905 11.0751 122.905Z" fill="url(#paint2_linear_27_198)"/>
<path d="M211.191 41.659C210.963 41.6588 210.735 41.6409 210.51 41.6055L185.183 37.6316C184.602 37.5401 184.044 37.3333 183.544 37.0231C183.044 36.713 182.61 36.3059 182.27 35.8258C181.929 35.3456 181.688 34.8022 181.56 34.2274C181.433 33.6526 181.422 33.0582 181.527 32.479L186.811 3.6203C187.014 2.49347 187.648 1.49008 188.578 0.823372C189.509 0.156665 190.663 -0.120806 191.795 0.0499235L216.709 3.72363C217.289 3.80934 217.846 4.00982 218.348 4.31333C218.85 4.61684 219.286 5.01731 219.631 5.49134C219.976 5.96537 220.224 6.50345 220.358 7.07414C220.493 7.64483 220.513 8.23669 220.417 8.81513L215.544 37.9743C215.369 39.0029 214.836 39.9366 214.04 40.6107C213.243 41.2848 212.234 41.656 211.191 41.659Z" fill="#F2F2F2"/>
<path d="M212.187 16.2815C212.108 16.2815 212.03 16.2741 211.953 16.2596L192.095 12.5551C191.93 12.5263 191.772 12.465 191.631 12.3747C191.49 12.2845 191.368 12.1672 191.273 12.0295C191.177 11.8918 191.11 11.7365 191.075 11.5727C191.04 11.4088 191.037 11.2396 191.068 11.0748C191.099 10.9101 191.162 10.7531 191.254 10.6129C191.345 10.4727 191.464 10.3521 191.603 10.2582C191.742 10.1642 191.898 10.0987 192.062 10.0655C192.226 10.0322 192.395 10.0319 192.56 10.0645L212.417 13.7699C212.728 13.8275 213.006 13.9991 213.196 14.251C213.387 14.5029 213.476 14.8169 213.447 15.1314C213.419 15.446 213.273 15.7384 213.04 15.9513C212.807 16.1642 212.502 16.2822 212.186 16.2823L212.187 16.2815Z" fill="url(#paint3_linear_27_198)"/>
<path d="M210.312 22.9112C210.254 22.9113 210.196 22.9074 210.139 22.8995L191.099 20.3064C190.77 20.2564 190.474 20.079 190.275 19.8127C190.076 19.5464 189.99 19.2124 190.034 18.8829C190.079 18.5533 190.252 18.2547 190.515 18.0514C190.778 17.8481 191.111 17.7564 191.441 17.7962L210.481 20.3893C210.799 20.4329 211.088 20.5953 211.291 20.8439C211.493 21.0925 211.594 21.4086 211.573 21.7286C211.551 22.0486 211.41 22.3486 211.176 22.5681C210.942 22.7876 210.634 22.9102 210.313 22.9112H210.312Z" fill="url(#paint4_linear_27_198)"/>
<path d="M202.67 29.718C202.602 29.7178 202.534 29.7122 202.466 29.7012L189.598 27.6178C189.433 27.5925 189.274 27.5347 189.131 27.4478C188.988 27.3608 188.864 27.2464 188.766 27.1111C188.667 26.9758 188.596 26.8223 188.558 26.6595C188.519 26.4968 188.513 26.3279 188.539 26.1627C188.566 25.9976 188.625 25.8393 188.714 25.6972C188.802 25.555 188.918 25.4317 189.054 25.3345C189.19 25.2372 189.344 25.1679 189.507 25.1306C189.67 25.0932 189.839 25.0886 190.004 25.1169L202.872 27.1994C203.187 27.2486 203.473 27.4153 203.671 27.666C203.869 27.9167 203.964 28.233 203.939 28.5514C203.914 28.8699 203.769 29.1671 203.534 29.3834C203.299 29.5997 202.991 29.7193 202.672 29.718H202.67Z" fill="url(#paint5_linear_27_198)"/>
<path d="M158.849 86.7809C157.015 87.8937 153.748 89.2877 150.409 87.8551L148.251 86.9288L152.576 82.0235C149.121 78.1553 147.215 73.1492 147.22 67.963C147.225 62.7768 149.142 57.7746 152.604 53.9133C156.038 50.0755 160.791 47.6718 165.917 47.1806C171.043 46.6894 176.166 48.1467 180.266 51.2625C184.385 54.4106 187.198 58.9682 188.166 64.062C189.134 69.1558 188.189 74.4276 185.511 78.8675C182.871 83.2918 178.663 86.5614 173.724 88.0274C168.785 89.4933 163.476 89.0484 158.849 86.7809Z" fill="url(#paint6_linear_27_198)"/>
<path d="M158.083 61.8767H177.881C178.26 61.8767 178.624 62.0275 178.893 62.2959C179.161 62.5644 179.312 62.9285 179.312 63.3081C179.312 63.6877 179.161 64.0518 178.893 64.3202C178.624 64.5886 178.26 64.7395 177.881 64.7395H158.083C157.703 64.7395 157.339 64.5886 157.071 64.3202C156.803 64.0518 156.652 63.6877 156.652 63.3081C156.652 62.9285 156.803 62.5644 157.071 62.2959C157.339 62.0275 157.703 61.8767 158.083 61.8767Z" fill="white"/>
<path d="M158.083 66.6479H177.881C178.26 66.6479 178.624 66.7988 178.893 67.0672C179.161 67.3356 179.312 67.6997 179.312 68.0793C179.312 68.4589 179.161 68.823 178.893 69.0915C178.624 69.3599 178.26 69.5107 177.881 69.5107H158.083C157.703 69.5107 157.339 69.3599 157.071 69.0915C156.803 68.823 156.652 68.4589 156.652 68.0793C156.652 67.6997 156.803 67.3356 157.071 67.0672C157.339 66.7988 157.703 66.6479 158.083 66.6479Z" fill="white"/>
<path d="M158.083 71.4187H171.202C171.582 71.4187 171.946 71.5695 172.214 71.8379C172.482 72.1064 172.633 72.4704 172.633 72.8501C172.633 73.2297 172.482 73.5938 172.214 73.8622C171.946 74.1306 171.582 74.2814 171.202 74.2814H158.083C157.703 74.2814 157.339 74.1306 157.071 73.8622C156.803 73.5938 156.652 73.2297 156.652 72.8501C156.652 72.4704 156.803 72.1064 157.071 71.8379C157.339 71.5695 157.703 71.4187 158.083 71.4187Z" fill="white"/>
<path d="M97.1354 94.4822C96.9427 94.4939 96.7503 94.5102 96.5602 94.5382C92.6962 95.0422 89.7843 98.0971 89.6809 101.76C89.5776 105.423 92.3087 108.621 96.1397 109.316C96.3298 109.35 96.5196 109.378 96.712 109.4C95.7635 107.016 95.3118 104.463 95.3846 101.898C95.4574 99.3324 96.0531 96.809 97.1354 94.4822Z" fill="#090814"/>
<path d="M118.458 126.314C131.328 126.314 141.762 115.879 141.762 103.008C141.762 90.1356 131.328 79.7009 118.458 79.7009C105.587 79.7009 95.1538 90.1356 95.1538 103.008C95.1538 115.879 105.587 126.314 118.458 126.314Z" fill="#090814"/>
<path d="M118.458 125.848C131.071 125.848 141.296 115.622 141.296 103.008C141.296 90.3932 131.071 80.1672 118.458 80.1672C105.845 80.1672 95.62 90.3932 95.62 103.008C95.62 115.622 105.845 125.848 118.458 125.848Z" fill="white"/>
<path d="M140.015 94.4822C140.208 94.4939 140.4 94.5102 140.59 94.5382C144.454 95.0422 147.366 98.0971 147.47 101.76C147.573 105.423 144.842 108.618 141.01 109.315C140.82 109.348 140.63 109.377 140.438 109.399C141.386 107.015 141.838 104.462 141.765 101.897C141.692 99.332 141.097 96.8089 140.015 94.4822Z" fill="#090814"/>
<path d="M127.833 98.2116H109.083C108.591 98.2073 108.102 98.3006 107.646 98.4861C107.19 98.6716 106.775 98.9456 106.426 99.2923C106.076 99.639 105.798 100.051 105.609 100.506C105.42 100.961 105.322 101.448 105.322 101.941C105.322 102.433 105.42 102.921 105.609 103.375C105.798 103.83 106.076 104.242 106.426 104.589C106.775 104.936 107.19 105.21 107.646 105.395C108.102 105.581 108.591 105.674 109.083 105.67H127.833C128.816 105.661 129.756 105.264 130.449 104.566C131.141 103.868 131.529 102.924 131.529 101.941C131.529 100.957 131.141 100.014 130.449 99.3151C129.756 98.6167 128.816 98.2201 127.833 98.2116Z" fill="#090814"/>
<path d="M133.015 114.399C132.539 114.06 131.969 113.876 131.384 113.874H120.693C119.948 113.874 119.233 114.17 118.707 114.697C118.18 115.224 117.884 115.938 117.884 116.683C117.884 117.428 118.18 118.142 118.707 118.669C119.233 119.195 119.948 119.491 120.693 119.491H131.385C131.575 119.492 131.766 119.474 131.953 119.435C132.139 119.395 132.321 119.338 132.496 119.264C132.954 119.067 133.35 118.752 133.645 118.351C133.941 117.951 134.124 117.479 134.177 116.984C134.23 116.489 134.15 115.989 133.946 115.535C133.742 115.081 133.421 114.689 133.016 114.4L133.015 114.399Z" fill="#090814"/>
<path d="M121.405 118.109C122.192 118.109 122.83 117.47 122.83 116.683C122.83 115.895 122.192 115.257 121.405 115.257C120.617 115.257 119.979 115.895 119.979 116.683C119.979 117.47 120.617 118.109 121.405 118.109Z" fill="#F1F1F1"/>
<path d="M126.038 118.109C126.825 118.109 127.464 117.47 127.464 116.683C127.464 115.895 126.825 115.257 126.038 115.257C125.251 115.257 124.612 115.895 124.612 116.683C124.612 117.47 125.251 118.109 126.038 118.109Z" fill="#F1F1F1"/>
<path d="M130.671 118.109C131.459 118.109 132.097 117.47 132.097 116.683C132.097 115.895 131.459 115.257 130.671 115.257C129.884 115.257 129.246 115.895 129.246 116.683C129.246 117.47 129.884 118.109 130.671 118.109Z" fill="url(#paint7_linear_27_198)"/>
<path d="M193.621 200C192.869 199.997 192.14 199.734 191.56 199.256C190.979 198.777 190.582 198.112 190.437 197.374L184.76 168.09C184.67 167.626 184.683 167.149 184.797 166.69C184.911 166.232 185.124 165.804 185.42 165.437C185.717 165.069 186.09 164.771 186.514 164.562C186.938 164.354 187.402 164.241 187.874 164.23L215.307 163.64C216.075 163.619 216.825 163.874 217.422 164.358C218.019 164.841 218.424 165.523 218.563 166.279L223.943 194.677C224.029 195.132 224.017 195.599 223.908 196.048C223.798 196.498 223.594 196.918 223.309 197.282C223.024 197.646 222.664 197.945 222.254 198.158C221.844 198.372 221.393 198.495 220.932 198.52L193.796 199.995C193.737 199.998 193.679 200 193.621 200Z" fill="#F2F2F2"/>
<path d="M205.886 184.778C204.74 185.876 203.426 186.75 201.857 187.09L202.528 187.964C203.209 186.941 203.621 185.762 203.726 184.537C203.724 184.379 203.661 184.228 203.551 184.116C203.44 184.004 203.291 183.939 203.133 183.936C201.432 183.796 200.031 182.183 199.893 180.522C199.731 178.598 200.846 176.745 202.463 175.755C203.354 175.195 204.384 174.894 205.436 174.887C206.489 174.879 207.523 175.166 208.422 175.715C209.243 176.225 209.899 176.962 210.311 177.837C210.724 178.711 210.874 179.687 210.744 180.645C210.586 181.747 210.034 182.754 209.191 183.481C208.375 184.149 207.367 184.541 206.314 184.6C206.157 184.604 206.007 184.667 205.896 184.777C205.784 184.887 205.719 185.036 205.713 185.193C205.713 185.351 205.775 185.502 205.886 185.614C205.997 185.727 206.147 185.791 206.305 185.794C206.862 185.76 207.412 185.664 207.948 185.509C208.549 185.314 209.116 185.024 209.625 184.65C210.625 183.917 211.362 182.881 211.726 181.695C212.067 180.539 212.061 179.309 211.71 178.156C211.358 177.004 210.676 175.98 209.748 175.212C208.754 174.408 207.554 173.9 206.285 173.748C205.016 173.595 203.73 173.803 202.574 174.348C200.41 175.328 198.791 177.509 198.688 179.909C198.576 182.473 200.524 184.916 203.126 185.129L202.532 184.528C202.432 185.547 202.075 186.524 201.496 187.368C201.198 187.825 201.691 188.345 202.167 188.242C203.936 187.859 205.444 186.854 206.735 185.616C207.289 185.085 206.442 184.245 205.887 184.777L205.886 184.778Z" fill="url(#paint8_linear_27_198)"/>
<path d="M202.713 179.715L202.782 179.001L201.887 179.513C202.527 179.905 203.244 180.315 204.023 180.288C204.396 180.291 204.763 180.187 205.077 179.986C205.392 179.786 205.642 179.498 205.796 179.158C205.818 179.104 205.915 178.826 205.917 178.826L205.688 178.953C205.597 178.923 205.598 178.93 205.692 178.976C205.732 179.015 205.775 179.051 205.819 179.085C205.969 179.23 206.152 179.335 206.352 179.39C206.552 179.446 206.763 179.451 206.965 179.405C207.831 179.173 208.038 178.286 208.061 177.507C208.084 176.738 206.891 176.732 206.868 177.499C206.862 177.706 206.889 178.037 206.736 178.204C206.648 178.3 206.639 178.218 206.537 178.134C206.291 177.897 205.962 177.767 205.622 177.77C205.434 177.788 205.255 177.86 205.108 177.977C204.961 178.095 204.852 178.253 204.793 178.433C204.714 178.631 204.696 178.807 204.527 178.935C204.391 179.026 204.233 179.08 204.07 179.093C203.495 179.143 202.948 178.764 202.483 178.479C202.392 178.429 202.29 178.403 202.187 178.404C202.083 178.404 201.981 178.432 201.892 178.483C201.802 178.535 201.727 178.609 201.673 178.698C201.62 178.786 201.591 178.888 201.588 178.991L201.519 179.706C201.519 179.863 201.581 180.015 201.692 180.127C201.803 180.24 201.953 180.304 202.111 180.306C202.268 180.305 202.419 180.242 202.531 180.132C202.643 180.022 202.708 179.872 202.713 179.715Z" fill="url(#paint9_linear_27_198)"/>
<path d="M204.25 181.349C204.319 181.42 204.359 181.514 204.363 181.613C204.366 181.712 204.332 181.808 204.268 181.883C204.227 181.923 204.176 181.952 204.121 181.968C204.066 181.984 204.008 181.985 203.952 181.973C204.071 181.999 203.881 181.915 203.985 181.987C204.013 182.003 204.04 182.021 204.066 182.04C204.017 182 204.008 181.993 204.039 182.018C204.099 182.025 204.189 182.134 204.249 182.177C204.285 182.202 204.322 182.226 204.361 182.247C204.513 182.333 204.683 182.381 204.857 182.387C205.338 182.389 205.651 182.066 205.88 181.681C205.917 181.619 205.952 181.556 205.991 181.496C206 181.482 206.009 181.468 206.018 181.455C206.054 181.404 206.042 181.419 205.982 181.5C206.001 181.476 206.021 181.454 206.043 181.433C206.101 181.347 205.928 181.506 206.011 181.457C206.067 181.427 206.043 181.436 205.941 181.483C206.001 181.467 205.977 181.468 205.869 181.487L205.91 181.487C205.86 181.489 205.811 181.474 205.769 181.446C205.788 181.455 205.806 181.464 205.823 181.475C205.859 181.499 205.847 181.488 205.785 181.444C205.855 181.465 205.947 181.603 205.995 181.657C206.052 181.721 206.115 181.78 206.181 181.835C206.309 181.949 206.461 182.032 206.626 182.076C206.792 182.12 206.965 182.124 207.133 182.087C207.285 182.045 207.414 181.945 207.493 181.808C207.572 181.672 207.594 181.509 207.554 181.357C207.51 181.206 207.41 181.077 207.274 180.999C207.138 180.92 206.976 180.897 206.824 180.935C206.875 180.922 206.928 180.924 206.978 180.942C206.917 180.924 206.926 180.93 207.005 180.961C206.981 180.948 206.956 180.934 206.933 180.918C206.997 180.969 207.004 180.973 206.953 180.931C206.874 180.85 206.798 180.764 206.718 180.683C206.612 180.564 206.482 180.469 206.337 180.402C206.193 180.335 206.036 180.298 205.877 180.294C205.338 180.302 205.063 180.735 204.812 181.142C204.786 181.177 204.762 181.213 204.741 181.251C204.802 181.172 204.814 181.157 204.775 181.203C204.762 181.219 204.749 181.233 204.734 181.247C204.679 181.327 204.854 181.172 204.766 181.223C204.71 181.253 204.734 181.244 204.836 181.197C204.776 181.213 204.8 181.212 204.908 181.194C204.842 181.192 204.851 181.195 204.935 181.203C204.874 181.183 204.881 181.187 204.957 181.214C204.934 181.22 204.825 181.134 204.809 181.118C204.872 181.168 204.877 181.171 204.822 181.127L204.701 181.035C204.65 180.996 204.595 180.961 204.539 180.93C204.365 180.826 204.162 180.781 203.96 180.801C203.758 180.822 203.568 180.907 203.419 181.045C203.342 181.119 203.28 181.208 203.237 181.307C203.195 181.405 203.172 181.512 203.171 181.619C203.171 181.727 203.191 181.833 203.232 181.932C203.274 182.032 203.334 182.122 203.411 182.197C203.525 182.305 203.676 182.365 203.833 182.365C203.991 182.364 204.141 182.302 204.254 182.192C204.364 182.079 204.425 181.927 204.424 181.77C204.423 181.612 204.361 181.461 204.25 181.349Z" fill="url(#paint10_linear_27_198)"/>
<defs>
<linearGradient id="paint0_linear_27_198" x1="17.9236" y1="101.708" x2="17.9236" y2="107.95" gradientUnits="userSpaceOnUse">
<stop stop-color="#FFD11C"/>
<stop offset="0.5" stop-color="#FF7523"/>
<stop offset="0.75" stop-color="#FF4061"/>
</linearGradient>
<linearGradient id="paint1_linear_27_198" x1="19.1641" y1="108.56" x2="19.1641" y2="115.551" gradientUnits="userSpaceOnUse">
<stop stop-color="#FFD11C"/>
<stop offset="0.5" stop-color="#FF7523"/>
<stop offset="0.75" stop-color="#FF4061"/>
</linearGradient>
<linearGradient id="paint2_linear_27_198" x1="17.452" y1="117.671" x2="17.452" y2="122.905" gradientUnits="userSpaceOnUse">
<stop stop-color="#FFD11C"/>
<stop offset="0.5" stop-color="#FF7523"/>
<stop offset="0.75" stop-color="#FF4061"/>
</linearGradient>
<linearGradient id="paint3_linear_27_198" x1="202.25" y1="10.0403" x2="202.25" y2="16.2823" gradientUnits="userSpaceOnUse">
<stop stop-color="#FFD11C"/>
<stop offset="0.5" stop-color="#FF7523"/>
<stop offset="0.75" stop-color="#FF4061"/>
</linearGradient>
<linearGradient id="paint4_linear_27_198" x1="200.799" y1="17.7871" x2="200.799" y2="22.9112" gradientUnits="userSpaceOnUse">
<stop stop-color="#FFD11C"/>
<stop offset="0.5" stop-color="#FF7523"/>
<stop offset="0.75" stop-color="#FF4061"/>
</linearGradient>
<linearGradient id="paint5_linear_27_198" x1="196.233" y1="25.0986" x2="196.233" y2="29.718" gradientUnits="userSpaceOnUse">
<stop stop-color="#FFD11C"/>
<stop offset="0.5" stop-color="#FF7523"/>
<stop offset="0.75" stop-color="#FF4061"/>
</linearGradient>
<linearGradient id="paint6_linear_27_198" x1="167.878" y1="47.0872" x2="167.878" y2="88.8759" gradientUnits="userSpaceOnUse">
<stop stop-color="#FFD11C"/>
<stop offset="0.5" stop-color="#FF7523"/>
<stop offset="0.75" stop-color="#FF4061"/>
</linearGradient>
<linearGradient id="paint7_linear_27_198" x1="130.671" y1="115.257" x2="130.671" y2="118.109" gradientUnits="userSpaceOnUse">
<stop stop-color="#FFD11C"/>
<stop offset="0.5" stop-color="#FF7523"/>
<stop offset="0.75" stop-color="#FF4061"/>
</linearGradient>
<linearGradient id="paint8_linear_27_198" x1="203.715" y1="173.93" x2="207.194" y2="186.903" gradientUnits="userSpaceOnUse">
<stop stop-color="#FFD11C"/>
<stop offset="0.5" stop-color="#FF7523"/>
<stop offset="0.75" stop-color="#FF4061"/>
</linearGradient>
<linearGradient id="paint9_linear_27_198" x1="204.548" y1="177.688" x2="205.181" y2="180.05" gradientUnits="userSpaceOnUse">
<stop stop-color="#FFD11C"/>
<stop offset="0.5" stop-color="#FF7523"/>
<stop offset="0.75" stop-color="#FF4061"/>
</linearGradient>
<linearGradient id="paint10_linear_27_198" x1="205.077" y1="180.479" x2="205.618" y2="182.493" gradientUnits="userSpaceOnUse">
<stop stop-color="#FFD11C"/>
<stop offset="0.5" stop-color="#FF7523"/>
<stop offset="0.75" stop-color="#FF4061"/>
</linearGradient>
</defs>
</svg>
