<svg width="130" height="24" viewBox="0 0 130 24" fill="none" xmlns="http://www.w3.org/2000/svg">
<g clip-path="url(#clip0_8_84)">
<path d="M10.0259 24H9.2575C7.26152 24 6.06065 23.9996 5.14331 23.8295L10.4522 16.8206L10.0259 24Z" fill="#FF1616"/>
<path d="M18.8068 23.8508C17.9053 23.9993 16.724 24 14.8166 24H13.9083L13.4797 16.8185L18.8068 23.8508Z" fill="#FF1616"/>
<path d="M23.8764 19.0025C23.8376 19.1864 23.792 19.3593 23.7364 19.5256C23.3721 20.614 22.7327 21.5713 21.8994 22.3189L15.913 15.6264L23.8764 19.0025Z" fill="#FF1616"/>
<path d="M2.09766 22.2475C1.30233 21.5107 0.690501 20.58 0.337629 19.5256C0.276523 19.3429 0.225789 19.1526 0.184814 18.9482L8.01896 15.6275L2.09766 22.2475Z" fill="#FF1616"/>
<path d="M24.0741 14.771C24.0741 15.4457 24.0722 16.0292 24.0656 16.5415L16.9559 13.8036H24.0741V14.771Z" fill="#FF1616"/>
<path d="M6.97919 13.8036L0.00641177 16.4883C0.000424971 15.9888 0 15.4224 0 14.771V13.8036H6.97919Z" fill="#FF1616"/>
<path d="M14.8166 0C17.3217 0 18.5744 0.000332201 19.5858 0.336648C21.545 0.988278 23.0828 2.52125 23.7364 4.47443C24.0737 5.48279 24.0741 6.73158 24.0741 9.22902V12.0096H16.5563L21.9785 9.71166L20.3702 8.64738L15.1094 10.6726L17.5789 7.4148L15.8029 6.93006L13.0758 9.97692L12.8727 6.54546H11.0635L10.8573 9.97692L8.13228 6.93006L6.3573 7.4148L8.82369 10.6715L3.56601 8.64738L1.95773 9.71166L7.37888 12.0096H0V9.22902C0 6.73158 0.000333226 5.48279 0.337687 4.47443C0.991328 2.52125 2.52903 0.988278 4.48824 0.336648C5.49971 0.000332201 6.75236 0 9.2575 0H14.8166Z" fill="#FF1616"/>
<path d="M56.1368 18.866C56.7025 19.9236 57.7949 20.5892 59.2025 20.5892C60.6101 20.5892 61.7025 19.9236 62.2682 18.866H64.3856C63.6856 20.9792 61.7404 22.3916 59.2025 22.3916C56.6648 22.3916 54.7194 20.9792 54.0192 18.866H56.1368ZM86.9694 7.65586C90.1954 7.65586 92.4553 9.868 92.4553 13.043C92.4553 16.4022 89.9486 18.3076 87.2981 18.3076C85.6544 18.3075 84.2575 17.57 83.5178 16.2591V22.3629H81.5654V13.0635C81.5654 9.76563 83.826 7.65586 86.9694 7.65586ZM86.9899 9.45819C84.9147 9.45819 83.5178 10.9332 83.5178 12.9814C83.5178 15.0297 84.9147 16.5047 86.9899 16.5047C89.0856 16.5047 90.4831 15.0298 90.4831 12.9814C90.4831 10.9331 89.0856 9.45819 86.9899 9.45819ZM47.5816 7.65586C50.7868 7.65586 53.047 9.90898 53.047 12.9814C53.047 16.0539 50.7869 18.3076 47.5816 18.3076C44.3763 18.3076 42.1161 16.0539 42.1161 12.9814C42.1163 9.90898 44.3764 7.65586 47.5816 7.65586ZM47.5816 9.45819C45.4859 9.45819 44.0887 10.9331 44.0886 12.9814C44.0886 15.0298 45.4858 16.5047 47.5816 16.5047C49.6774 16.5047 51.0746 15.0298 51.0746 12.9814C51.0745 10.9331 49.6773 9.45819 47.5816 9.45819ZM59.4188 7.66054H64.728V9.40078H63.3582C64.1875 10.3279 64.6672 11.5674 64.6672 12.9814C64.6672 16.0539 62.4073 18.3076 59.2019 18.3076C55.9966 18.3076 53.7365 16.0539 53.7365 12.9814C53.7366 9.90898 55.9967 7.65586 59.2019 7.65586C59.2748 7.65586 59.347 7.6582 59.4188 7.66054ZM59.2019 9.45819C57.1062 9.45819 55.709 10.9331 55.709 12.9814C55.709 15.0298 57.1062 16.5047 59.2019 16.5047C61.2975 16.5047 62.695 15.0298 62.695 12.9814C62.695 10.9331 61.2975 9.45819 59.2019 9.45819ZM70.823 7.65586C74.0278 7.65586 76.2884 9.90898 76.2884 12.9814C76.2884 16.0539 74.0278 18.3076 70.823 18.3076C67.6175 18.3076 65.3575 16.0539 65.3575 12.9814C65.3575 9.90898 67.6175 7.65586 70.823 7.65586ZM70.823 9.45819C68.7273 9.45819 67.3298 10.9331 67.3298 12.9814C67.3298 15.0298 68.7273 16.5047 70.823 16.5047C72.9186 16.5047 74.3161 15.0298 74.3161 12.9814C74.3155 10.9331 72.9186 9.45819 70.823 9.45819ZM97.3893 7.65586C99.8142 7.65592 101.314 9.02848 101.355 10.7695H99.423C99.3616 9.99118 98.643 9.41728 97.4104 9.41716C96.1158 9.41716 95.3761 10.0322 95.3761 10.8311C95.3761 11.7935 96.4444 11.8959 97.6975 12.0597C99.4645 12.285 101.622 12.6129 101.622 14.9273C101.622 16.9756 99.958 18.3075 97.4104 18.3076C94.8621 18.3076 93.2594 16.9554 93.198 15.1119H95.1703C95.2112 15.9517 95.9924 16.5457 97.4104 16.5457C98.8891 16.5456 99.6493 15.9107 99.6493 15.1119C99.6493 14.1492 98.581 14.0259 97.3074 13.8621C95.5404 13.6368 93.4032 13.3092 93.4032 10.9945C93.4032 9.00766 94.965 7.65586 97.3893 7.65586ZM104.712 13.2064C104.712 15.3981 105.925 16.5047 107.774 16.5047C109.623 16.5047 110.835 15.3981 110.835 13.2064V7.92184H112.787V13.2064C112.787 16.5657 110.774 18.307 107.774 18.307C104.774 18.307 102.76 16.5862 102.76 13.2064V7.92184H104.712V13.2064ZM33.9941 16.1156H41.5349V18.041H31.8982V4.6447H33.9941V16.1156ZM79.7105 18.041H77.7587V7.92184H79.7105V18.041ZM125.643 7.65586C128.026 7.65586 129.835 9.08974 129.835 12.1828V18.041H127.882V12.1828C127.882 10.2984 126.876 9.45825 125.458 9.45819C124.081 9.45819 123.053 10.3392 123.053 12.1828V18.041H121.102V12.1828C121.102 10.3392 120.054 9.45819 118.677 9.45819C117.259 9.45819 116.253 10.2983 116.253 12.1828V18.041H114.301V12.1828C114.301 9.08974 116.109 7.65586 118.493 7.65586C120.054 7.65592 121.369 8.3524 122.067 9.66327C122.766 8.35233 124.06 7.65586 125.643 7.65586ZM78.7247 3.59998C79.5053 3.59998 80.0812 4.17344 80.0812 4.95173C80.0812 5.73011 79.5053 6.32458 78.7247 6.32458C77.9441 6.32452 77.3687 5.73006 77.3687 4.95173C77.3687 4.17349 77.9441 3.60005 78.7247 3.59998Z" fill="#280F00"/>
</g>
<defs>
<clipPath id="clip0_8_84">
<rect width="130" height="24" fill="white"/>
</clipPath>
</defs>
</svg>
