<svg width="133" height="24" viewBox="0 0 133 24" fill="none" xmlns="http://www.w3.org/2000/svg">
<g clip-path="url(#clip0_8_71)">
<path fill-rule="evenodd" clip-rule="evenodd" d="M11.982 0C16.4613 0 18.7011 -0.000122952 20.3694 0.964452C21.4622 1.59638 22.37 2.50546 23.001 3.6C23.9641 5.27076 23.964 7.51392 23.964 12C23.964 16.4861 23.9641 18.7292 23.001 20.4C22.37 21.4945 21.4622 22.4036 20.3694 23.0356C18.7011 24.0001 16.4613 24 11.982 24C7.50264 24 5.26285 24.0001 3.59459 23.0356C2.5017 22.4036 1.59399 21.4945 0.963004 20.4C-0.000122768 18.7292 0 16.4861 0 12C0 7.51392 -0.000122768 5.27076 0.963004 3.6C1.59399 2.50546 2.5017 1.59638 3.59459 0.964452C5.26285 -0.000122952 7.50264 0 11.982 0ZM13.1802 2.4C7.88618 2.4 3.59459 6.69804 3.59459 12C3.59459 17.302 7.88618 21.6 13.1802 21.6C18.4742 21.6 22.7658 17.302 22.7658 12C22.7658 6.69804 18.4742 2.4 13.1802 2.4Z" fill="#FF4D00"/>
<path d="M21.5676 12C21.5676 15.3137 18.8853 18 15.5766 18C12.2679 18 9.58557 15.3137 9.58557 12C9.58557 8.68632 12.2679 6 15.5766 6C18.8853 6 21.5676 8.68632 21.5676 12Z" fill="#FF4D00"/>
<path d="M128.528 6.75525C129.867 6.75525 130.944 7.16721 131.759 7.99119C132.586 8.80203 133 9.93993 133 11.4047V17.7806H130.242V11.7775C130.242 10.9273 130.025 10.2799 129.592 9.83529C129.158 9.37755 128.567 9.14865 127.818 9.14865C127.07 9.14865 126.472 9.37755 126.025 9.83529C125.592 10.2799 125.375 10.9273 125.375 11.7775V17.7806H122.616V11.7775C122.616 10.9273 122.4 10.2799 121.966 9.83529C121.533 9.37755 120.942 9.14865 120.193 9.14865C119.432 9.14865 118.827 9.37755 118.381 9.83529C117.947 10.2799 117.73 10.9273 117.73 11.7775V17.7806H114.972V6.91221H117.73V8.22657C118.085 7.76883 118.538 7.40919 119.09 7.14759C119.654 6.88605 120.272 6.75525 120.942 6.75525C121.796 6.75525 122.558 6.93837 123.228 7.30455C123.897 7.65765 124.416 8.16771 124.784 8.83473C125.139 8.20695 125.651 7.70343 126.321 7.32417C127.004 6.94485 127.739 6.75525 128.528 6.75525Z" fill="#391300"/>
<path d="M112.94 6.91211V17.7806H110.162V16.4073C109.807 16.8781 109.341 17.2508 108.763 17.5255C108.198 17.7871 107.581 17.9178 106.911 17.9178C106.057 17.9178 105.302 17.7413 104.645 17.3882C103.989 17.022 103.47 16.4923 103.089 15.7991C102.721 15.0929 102.537 14.2558 102.537 13.288V6.91211H105.295V12.8957C105.295 13.7588 105.512 14.4258 105.945 14.8967C106.379 15.3545 106.97 15.5833 107.719 15.5833C108.481 15.5833 109.079 15.3545 109.512 14.8967C109.945 14.4258 110.162 13.7588 110.162 12.8957V6.91211H112.94Z" fill="#391300"/>
<path d="M96.7659 17.9571C95.8727 17.9571 95.0711 17.8002 94.3617 17.4863C93.6524 17.1593 93.088 16.7212 92.6675 16.1719C92.2601 15.6226 92.0372 15.0144 91.9977 14.3474H94.7757C94.8284 14.7659 95.0321 15.1125 95.3862 15.3872C95.754 15.6618 96.2075 15.7991 96.7461 15.7991C97.2715 15.7991 97.6783 15.6945 97.9677 15.4853C98.2696 15.276 98.4206 15.0079 98.4206 14.6809C98.4206 14.3278 98.2367 14.0662 97.8689 13.8962C97.5142 13.7131 96.9432 13.5169 96.1548 13.3076C95.3407 13.1114 94.6709 12.9088 94.1455 12.6995C93.6332 12.4902 93.1863 12.1698 92.8053 11.7382C92.4374 11.3066 92.2535 10.7246 92.2535 9.99222C92.2535 9.39054 92.4242 8.84124 92.7663 8.34426C93.1204 7.84728 93.62 7.45494 94.2635 7.16718C94.9201 6.87948 95.6887 6.7356 96.5688 6.7356C97.8689 6.7356 98.9065 7.06254 99.6817 7.71648C100.456 8.35734 100.884 9.2271 100.963 10.3257H98.3224C98.2828 9.89412 98.0989 9.55404 97.7706 9.30558C97.4555 9.04398 97.0283 8.91318 96.4897 8.91318C95.9907 8.91318 95.6031 9.00474 95.3275 9.18786C95.0645 9.37098 94.9333 9.62598 94.9333 9.95298C94.9333 10.3192 95.1172 10.6004 95.485 10.7965C95.8529 10.9796 96.4244 11.1693 97.1991 11.3654C97.9875 11.5616 98.6375 11.7644 99.1497 11.9736C99.662 12.1829 100.102 12.5098 100.47 12.9545C100.851 13.3861 101.048 13.9616 101.061 14.6809C101.061 15.3087 100.884 15.8711 100.529 16.3681C100.187 16.865 99.6883 17.2574 99.0317 17.5451C98.3877 17.8198 97.6328 17.9571 96.7659 17.9571Z" fill="#391300"/>
<path d="M82.6835 8.4816C83.0382 7.98462 83.524 7.5726 84.1417 7.24566C84.7719 6.90564 85.4879 6.7356 86.2889 6.7356C87.2217 6.7356 88.0622 6.96444 88.8111 7.42224C89.5725 7.87998 90.1704 8.53392 90.6042 9.384C91.0505 10.2211 91.274 11.1955 91.274 12.3071C91.274 13.4188 91.0505 14.4062 90.6042 15.2695C90.1704 16.1195 89.5725 16.78 88.8111 17.2509C88.0622 17.7217 87.2217 17.9571 86.2889 17.9571C85.4879 17.9571 84.7785 17.7937 84.1609 17.4667C83.557 17.1397 83.0645 16.7277 82.6835 16.2307V22.9597H79.9252V6.91218H82.6835V8.4816ZM88.4564 12.3071C88.4564 11.6532 88.3186 11.0908 88.0424 10.6199C87.78 10.136 87.4254 9.76986 86.9784 9.52134C86.5453 9.27288 86.0726 9.14862 85.5598 9.14862C85.0607 9.14862 84.588 9.27942 84.1417 9.54096C83.7079 9.78948 83.3533 10.1557 83.0777 10.6396C82.8147 11.1235 82.6835 11.6924 82.6835 12.3464C82.6835 13.0003 82.8147 13.5692 83.0777 14.0531C83.3533 14.537 83.7079 14.9098 84.1417 15.1714C84.588 15.4199 85.0607 15.5441 85.5598 15.5441C86.0726 15.5441 86.5453 15.4133 86.9784 15.1517C87.4254 14.8901 87.78 14.5174 88.0424 14.0335C88.3186 13.5496 88.4564 12.9742 88.4564 12.3071Z" fill="#391300"/>
<path d="M76.5301 5.61739C76.0436 5.61739 75.6369 5.46698 75.3086 5.16617C74.9928 4.85228 74.8353 4.46646 74.8353 4.00871C74.8353 3.55095 74.9928 3.17167 75.3086 2.87086C75.6369 2.55697 76.0436 2.40002 76.5301 2.40002C77.016 2.40002 77.4168 2.55697 77.7319 2.87086C78.0602 3.17167 78.2244 3.55095 78.2244 4.00871C78.2244 4.46646 78.0602 4.85228 77.7319 5.16617C77.4168 5.46698 77.016 5.61739 76.5301 5.61739ZM77.8895 6.9122V17.7806H75.1312V6.9122H77.8895Z" fill="#391300"/>
<path d="M68.1032 17.9571C67.0524 17.9571 66.1064 17.7283 65.2658 17.2705C64.4253 16.7996 63.7621 16.1392 63.2756 15.2891C62.8029 14.4389 62.5669 13.4581 62.5669 12.3464C62.5669 11.2346 62.8095 10.2538 63.2954 9.40362C63.795 8.55354 64.4714 7.8996 65.3251 7.44186C66.1789 6.97098 67.1308 6.7356 68.1817 6.7356C69.2325 6.7356 70.185 6.97098 71.0388 7.44186C71.8925 7.8996 72.5623 8.55354 73.0487 9.40362C73.5478 10.2538 73.797 11.2346 73.797 12.3464C73.797 13.4581 73.5412 14.4389 73.029 15.2891C72.5299 16.1392 71.8463 16.7996 70.9794 17.2705C70.1257 17.7283 69.1672 17.9571 68.1032 17.9571ZM68.1032 15.5637C68.6022 15.5637 69.0683 15.446 69.5021 15.2106C69.9484 14.9621 70.3031 14.5959 70.5661 14.112C70.8285 13.6281 70.9603 13.0396 70.9603 12.3464C70.9603 11.3131 70.6841 10.5219 70.1323 9.9726C69.5937 9.41016 68.9305 9.129 68.1427 9.129C67.3543 9.129 66.6911 9.41016 66.1525 9.9726C65.6271 10.5219 65.3647 11.3131 65.3647 12.3464C65.3647 13.3796 65.6205 14.1774 66.1327 14.7398C66.6581 15.2891 67.3148 15.5637 68.1032 15.5637Z" fill="#391300"/>
<path d="M56.2284 17.9571C55.1776 17.9571 54.2319 17.7283 53.3912 17.2705C52.5506 16.7996 51.8873 16.1392 51.4012 15.2891C50.9284 14.4389 50.692 13.4581 50.692 12.3464C50.692 11.2346 50.9349 10.2538 51.4209 9.40362C51.9201 8.55354 52.5965 7.8996 53.4503 7.44186C54.3041 6.97098 55.2564 6.7356 56.3073 6.7356C57.358 6.7356 58.3103 6.97098 59.1641 7.44186C60.0178 7.8996 60.6876 8.55354 61.174 9.40362C61.6731 10.2538 61.9223 11.2346 61.9223 12.3464C61.9223 13.4581 61.6665 14.4389 61.1543 15.2891C60.6552 16.1392 59.9716 16.7996 59.105 17.2705C58.2512 17.7283 57.2923 17.9571 56.2284 17.9571ZM56.2284 15.5637C56.7275 15.5637 57.1939 15.446 57.6273 15.2106C58.0739 14.9621 58.4285 14.5959 58.6912 14.112C58.9539 13.6281 59.0853 13.0396 59.0853 12.3464C59.0853 11.3131 58.8094 10.5219 58.2578 9.9726C57.7193 9.41016 57.0559 9.129 56.2678 9.129C55.4797 9.129 54.8164 9.41016 54.2779 9.9726C53.7525 10.5219 53.4897 11.3131 53.4897 12.3464C53.4897 13.3796 53.7459 14.1774 54.2582 14.7398C54.7836 15.2891 55.4403 15.5637 56.2284 15.5637Z" fill="#391300"/>
<path d="M44.3537 17.9571C43.3029 17.9571 42.3572 17.7283 41.5165 17.2705C40.6758 16.7996 40.0125 16.1392 39.5265 15.2891C39.0537 14.4389 38.8172 13.4581 38.8172 12.3464C38.8172 11.2346 39.0602 10.2538 39.5462 9.40362C40.0454 8.55354 40.7218 7.8996 41.5756 7.44186C42.4294 6.97098 43.3817 6.7356 44.4325 6.7356C45.4833 6.7356 46.4356 6.97098 47.2894 7.44186C48.1432 7.8996 48.813 8.55354 49.299 9.40362C49.7982 10.2538 50.0478 11.2346 50.0478 12.3464C50.0478 13.4581 49.7916 14.4389 49.2794 15.2891C48.7802 16.1392 48.0972 16.7996 47.2303 17.2705C46.3765 17.7283 45.4177 17.9571 44.3537 17.9571ZM44.3537 15.5637C44.8528 15.5637 45.3191 15.446 45.7525 15.2106C46.1992 14.9621 46.5538 14.5959 46.8165 14.112C47.0792 13.6281 47.2106 13.0396 47.2106 12.3464C47.2106 11.3131 46.9348 10.5219 46.383 9.9726C45.8445 9.41016 45.1812 9.129 44.3931 9.129C43.605 9.129 42.9416 9.41016 42.4031 9.9726C41.8777 10.5219 41.615 11.3131 41.615 12.3464C41.615 13.3796 41.8712 14.1774 42.3834 14.7398C42.9088 15.2891 43.5656 15.5637 44.3537 15.5637Z" fill="#391300"/>
<path d="M33.9115 15.603H38.4432V17.7805H31.1531V4.08716H33.9115V15.603Z" fill="#391300"/>
<path d="M58.906 18.4137C59.1282 18.3244 59.3458 18.2229 59.5583 18.1089L59.5629 18.1065C60.5012 17.5969 61.262 16.893 61.8348 16.0053V18.1621C61.7737 21.0654 59.4003 23.4 56.4818 23.4H56.1882C53.2696 23.4 50.8966 21.0654 50.8354 18.1621H53.7395C53.7994 19.4624 54.8728 20.4981 56.1882 20.4981H56.4818C57.7111 20.4981 58.7291 19.5934 58.906 18.4137Z" fill="#391300"/>
</g>
<defs>
<clipPath id="clip0_8_71">
<rect width="133" height="24" fill="white"/>
</clipPath>
</defs>
</svg>
