<svg width="172" height="24" viewBox="0 0 172 24" fill="none" xmlns="http://www.w3.org/2000/svg">
<g clip-path="url(#clip0_8_46)">
<path d="M40.3529 16.5378H46.879L46.0649 20.3998H39.5387C36.2949 20.3998 34.2119 17.8062 34.8864 14.6069L36.5825 6.56116H40.4982L38.8021 14.6069C38.5773 15.6734 39.2716 16.5378 40.3529 16.5378Z" fill="#0A0048"/>
<path d="M78.5129 6.56116L76.8169 14.6069C76.1427 17.8062 72.9658 20.3998 69.7223 20.3998H63.1959L64.0104 16.5378H70.5362C71.6173 16.5378 72.6763 15.6734 72.901 14.6069L73.7832 10.4231H68.2828C68.0766 10.4231 67.8747 10.5879 67.8321 10.7912C67.795 10.9666 67.8891 11.1177 68.0557 11.1521L73.3505 12.2417L69.331 15.5237L66.4897 14.9391C64.5683 14.5436 63.4914 12.8075 63.9163 10.7912C64.4089 8.455 66.7282 6.56116 69.0967 6.56116H78.5129Z" fill="#0A0048"/>
<path fill-rule="evenodd" clip-rule="evenodd" d="M88.6282 6.5625C91.8722 6.5625 93.9554 9.15612 93.2806 12.3554L92.8059 14.6083C92.1431 17.7538 89.0615 20.3136 85.875 20.3988L86.6882 16.5392L81.9693 20.3926C78.9075 20.2298 76.9801 17.7025 77.6328 14.6083L78.1074 12.3554C78.7715 9.20604 81.8597 6.64368 85.0503 6.56442L85.202 6.5625H88.6282ZM84.3378 10.4251C83.274 10.4515 82.2444 11.3057 82.0233 12.3554L81.5486 14.6083C81.3233 15.6747 82.0179 16.5392 83.099 16.5392H86.5252C87.6064 16.5392 88.6653 15.6747 88.8901 14.6083L89.3653 12.3554C89.5901 11.289 88.8955 10.4245 87.8143 10.4245H84.3881L84.3378 10.4251Z" fill="#0A0048"/>
<path d="M96.3164 20.3998H92.4005L95.318 6.56116H99.2332L96.3164 20.3998Z" fill="#0A0048"/>
<path d="M109.074 6.56116C111.839 6.56116 113.615 8.77174 113.039 11.4986C112.544 13.8521 110.432 15.8784 107.994 16.34L105.507 16.811L102.872 13.529L108.025 12.5532C108.556 12.4526 109.016 12.0112 109.124 11.4986C109.249 10.9046 108.862 10.4231 108.26 10.4231H103.477L101.374 20.3998H97.4581L100.375 6.56116H109.074Z" fill="#0A0048"/>
<path d="M127.961 6.56134L127.147 10.4232H117.967C117.81 10.4233 117.658 10.5485 117.625 10.7028C117.596 10.8361 117.668 10.9509 117.795 10.977L123.723 12.1973L123.811 12.2165C125.637 12.6377 126.653 14.3151 126.243 16.2585C125.761 18.5457 123.49 20.3999 121.171 20.4H114.928L111.826 16.538H121.985C122.142 16.538 122.294 16.4129 122.327 16.2585C122.354 16.1335 122.293 16.0247 122.181 15.99L122.157 15.9843L116.229 14.7641C114.348 14.3769 113.293 12.677 113.709 10.7028C114.191 8.41558 116.462 6.56134 118.781 6.56134H127.961Z" fill="#0A0048"/>
<path d="M130.996 14.6069C130.772 15.6734 131.466 16.5378 132.547 16.5378H137.931L140.034 6.56116H143.95L141.033 20.3998H137.117L137.931 16.5378L133.201 20.3998H131.733C128.489 20.3998 126.406 17.8062 127.08 14.6069L128.776 6.56116H132.692L130.996 14.6069Z" fill="#0A0048"/>
<path d="M148.845 6.56128L148.031 10.4232L152.76 6.56128H153.413C156.657 6.56128 158.74 9.15484 158.065 12.3542L156.369 20.3999H152.453L154.15 12.3542C154.375 11.2878 153.68 10.4232 152.599 10.4232H148.031L145.928 20.3999H142.012L144.929 6.56128H148.845Z" fill="#0A0048"/>
<path d="M163.528 6.56116C166.772 6.56116 168.855 9.15472 168.181 12.3541L166.485 20.3998H162.569L164.265 12.3541C164.489 11.2877 163.796 10.4231 162.714 10.4231H158.146L162.876 6.56116H163.528Z" fill="#0A0048"/>
<path fill-rule="evenodd" clip-rule="evenodd" d="M58.445 6.56116C61.6887 6.56116 63.7719 9.15472 63.0976 12.354L62.6224 14.6069C61.9482 17.8062 58.7717 20.3999 55.5278 20.3999H52.1016C48.8577 20.3999 46.7747 17.8062 47.4492 14.6069L47.9241 12.354C48.5657 9.31096 51.4707 6.8161 54.5443 6.57964L57.631 10.4231L58.445 6.56116ZM54.1541 10.4238C53.0906 10.4502 52.0612 11.3043 51.8398 12.354L51.3648 14.6069C51.14 15.6733 51.8344 16.5379 52.9156 16.5379H56.3419C57.4231 16.5379 58.482 15.6733 58.7068 14.6069L59.1817 12.354C59.4065 11.2876 58.7122 10.4231 57.631 10.4231H54.2048L54.1541 10.4238Z" fill="#0A0048"/>
<path d="M172 5.57409C172 6.66436 171.123 7.54822 170.042 7.54822C168.961 7.54822 168.084 6.66436 168.084 5.57409C168.084 4.48382 168.961 3.59998 170.042 3.59998C171.123 3.59998 172 4.48382 172 5.57409Z" fill="#0A0048"/>
<path d="M25.77 18.6L18.5784 24H2.99652L4.19512 21L7.19164 18.6H17.3798L19.1777 21L23.9721 6.6L26.9686 4.2H29.9652L25.77 18.6ZM25.77 3L22.7735 5.4H12.5854L10.7875 3L5.99303 17.4L2.99652 19.8H0L4.19512 5.4L11.3868 0H26.9686L25.77 3ZM14.3833 7.8H20.9756L17.3798 18.6L15.5819 16.2H8.98955L12.5854 5.4L14.3833 7.8Z" fill="#297AFF"/>
</g>
<defs>
<clipPath id="clip0_8_46">
<rect width="172" height="24" fill="white"/>
</clipPath>
</defs>
</svg>
