<svg width="156" height="24" viewBox="0 0 156 24" fill="none" xmlns="http://www.w3.org/2000/svg">
<g clip-path="url(#clip0_8_33)">
<path d="M20.2344 21.9485C22.6456 19.5373 24.0002 16.2671 24.0002 12.8572C24.0002 9.44724 22.6456 6.17694 20.2344 3.76577C17.8232 1.35459 14.5529 6.13128e-07 11.143 0C7.73309 -6.13128e-07 4.46283 1.35458 2.05165 3.76577L6.29429 8.00838C6.96377 8.67786 8.04485 8.64444 8.89655 8.23086C9.59015 7.89408 10.3573 7.71426 11.143 7.71426C12.507 7.71426 13.8151 8.25612 14.7796 9.22062C15.7441 10.1851 16.2859 11.4932 16.2859 12.8572C16.2859 13.6429 16.1061 14.41 15.7693 15.1036C15.3557 15.9553 15.3223 17.0364 15.9917 17.7059L20.2344 21.9485Z" fill="#297AFF"/>
<path d="M18 24H11.7059C10.7966 24 9.92448 23.6388 9.28152 22.9958L1.00421 14.7185C0.361224 14.0755 0 13.2034 0 12.2941V6L18 24Z" fill="#34C2FF"/>
<path d="M6.42858 23.9999H2.57143C1.15127 23.9999 0 22.8487 0 21.4285V17.5714L6.42858 23.9999Z" fill="#34C2FF"/>
<path d="M146.482 4.15753C151.546 4.15753 155.669 8.28043 155.669 13.3444V19.8425H151.187V13.3444C151.187 11.4847 150.067 9.87133 148.499 9.10951V19.8425H144.017V13.3444C144.017 11.4847 142.897 9.87133 141.328 9.10951V19.8425H136.847V4.15753H139.312C141.014 4.15753 142.628 4.65049 144.017 5.47955V4.15753H146.482Z" fill="#0F2D5E"/>
<path d="M135.067 13.3444C135.067 16.9296 132.131 19.8425 128.569 19.8425C124.984 19.8425 122.071 16.9296 122.071 13.3444V4.15753H126.552V13.3444C126.552 14.4648 127.448 15.3611 128.569 15.3611C129.667 15.3611 130.586 14.4648 130.586 13.3444V4.15753H135.067V13.3444Z" fill="#0F2D5E"/>
<path d="M120.704 14.8009C120.704 17.557 118.463 19.7977 115.708 19.7977H109.052V15.3163H115.708C115.976 15.3163 116.223 15.0922 116.223 14.8009C116.223 14.532 115.976 14.308 115.708 14.308H113.893C111.092 14.308 108.829 12.0448 108.829 9.24397C108.829 6.44305 111.092 4.15753 113.893 4.15753H120.48V8.63893H113.893C113.557 8.63893 113.31 8.90785 113.31 9.24397C113.31 9.55765 113.557 9.82651 113.893 9.82651H115.708C118.463 9.82651 120.704 12.0672 120.704 14.8009Z" fill="#0F2D5E"/>
<path d="M102.265 4.15753C105.402 4.15753 107.978 6.73435 107.978 9.87133C107.978 13.0308 105.402 15.5851 102.265 15.5851H100.584V19.8425H96.1026V4.15753H102.265ZM102.265 11.1037C102.937 11.1037 103.497 10.566 103.497 9.87133C103.497 9.19915 102.937 8.63893 102.265 8.63893H100.584V11.1037H102.265Z" fill="#0F2D5E"/>
<path d="M94.0854 19.8425H89.604V4.15753H94.0854V19.8425Z" fill="#0F2D5E"/>
<path d="M88.2276 12C88.2276 16.3246 84.687 19.8425 80.385 19.8425C76.0602 19.8425 72.5424 16.3246 72.5424 12C72.5424 7.69783 76.0602 4.15753 80.385 4.15753C84.687 4.15753 88.2276 7.69783 88.2276 12ZM83.7462 12C83.7462 10.1626 82.2222 8.63893 80.385 8.63893C78.525 8.63893 77.0238 10.1626 77.0238 12C77.0238 13.8598 78.525 15.3611 80.385 15.3611C82.2222 15.3611 83.7462 13.8598 83.7462 12Z" fill="#0F2D5E"/>
<path d="M71.2386 10.9917V19.8425H65.6364C61.3122 19.8425 57.7941 16.3246 57.7941 12C57.7941 7.69783 61.3122 4.15753 65.6364 4.15753H71.2386V8.63893H65.6364C63.777 8.63893 62.2758 10.1626 62.2758 12C62.2758 13.8598 63.777 15.3611 65.6364 15.3611H66.7572V10.9917H71.2386Z" fill="#0F2D5E"/>
<path d="M57.0677 12C57.0677 16.3246 53.5273 19.8425 49.2252 19.8425C44.9006 19.8425 41.3827 16.3246 41.3827 12C41.3827 7.69783 44.9006 4.15753 49.2252 4.15753C53.5273 4.15753 57.0677 7.69783 57.0677 12ZM52.5862 12C52.5862 10.1626 51.0626 8.63893 49.2252 8.63893C47.3654 8.63893 45.8641 10.1626 45.8641 12C45.8641 13.8598 47.3654 15.3611 49.2252 15.3611C51.0626 15.3611 52.5862 13.8598 52.5862 12Z" fill="#0F2D5E"/>
<path d="M40.9209 15.3611V19.8425H35.3191C33.0784 19.8425 31.2859 18.0499 31.2859 15.8092V4.15753H35.7673V15.3611H40.9209Z" fill="#0F2D5E"/>
</g>
<defs>
<clipPath id="clip0_8_33">
<rect width="156" height="24" fill="white"/>
</clipPath>
</defs>
</svg>
