<svg width="133" height="24" viewBox="0 0 133 24" fill="none" xmlns="http://www.w3.org/2000/svg">
<g clip-path="url(#clip0_8_59)">
<path fill-rule="evenodd" clip-rule="evenodd" d="M23.0786 0.562399C23.8552 -0.181556 25.0793 -0.184939 25.86 0.537496L25.9339 0.609276L26.1863 0.874416C28.7433 3.62934 29.6961 6.83982 29.4517 9.97524C29.2037 13.1549 27.7389 16.1533 25.6953 18.5228C23.653 20.8907 20.9263 22.7555 17.979 23.5649C14.9945 24.3844 11.7304 24.1231 8.89704 22.1196C6.49389 20.4202 5.57895 17.6737 5.51679 15.0056C4.16825 14.3431 2.74932 13.5197 1.26053 12.5183L0.867148 12.2507L0.783346 12.1901C-0.0618829 11.5433 -0.255143 10.3462 0.360875 9.4674C0.977081 8.58858 2.17693 8.3502 3.08401 8.9088L3.17127 8.96544L3.52965 9.20958C4.42151 9.80946 5.27251 10.3295 6.08171 10.7785C6.60372 8.94354 7.4687 7.18176 8.60817 5.72952C10.3153 3.55393 12.8749 1.81408 16.0106 2.07367C18.835 2.30765 20.9219 3.76705 21.999 5.82669C23.042 7.82106 23.0575 10.2202 22.1459 12.2834C21.2166 14.3867 19.3299 16.1391 16.6159 16.8611C14.6627 17.3807 12.3745 17.345 9.79277 16.6492V16.6502C8.76506 16.3731 7.688 15.9904 6.56238 15.4934C6.30986 15.382 6.09008 15.5523 6.56238 15.8479C7.89159 16.7929 9.76407 17.585 10.3059 17.8509C10.562 18.2659 10.8796 18.6062 11.2436 18.8636C12.9186 20.0481 14.8781 20.2651 16.9003 19.7098C18.9597 19.1443 21.0237 17.7808 22.6246 15.9246C24.2243 14.0698 25.2557 11.8475 25.4256 9.66714C25.586 7.6098 24.9933 5.49627 23.2078 3.57566L23.0313 3.39059L22.9609 3.31442C22.2582 2.51767 22.3025 1.3063 23.0786 0.562399ZM15.6743 6.06012C14.3788 5.95285 13.0116 6.63594 11.7967 8.18418C10.8715 9.3633 10.1714 10.8954 9.81444 12.4719C12.357 13.3425 14.2518 13.3484 15.5683 12.9983C17.0925 12.5928 18.0064 11.6748 18.4463 10.6793C18.9038 9.64356 18.8569 8.51496 18.4132 7.66656C18.0037 6.8835 17.1792 6.1848 15.6743 6.06012Z" fill="#00DC33"/>
<path d="M82.8746 8.16157C81.7499 8.16157 81.0277 7.31563 81.1842 6.18079C81.3406 5.04597 82.2963 4.20001 83.4217 4.20001C84.5465 4.20001 85.2686 5.04597 85.1122 6.18079C84.9557 7.31563 84 8.16157 82.8746 8.16157Z" fill="#00390E"/>
<path d="M79.806 19.2829L81.2125 9.09009H84.2811L82.8747 19.2829H79.806Z" fill="#00390E"/>
<path fill-rule="evenodd" clip-rule="evenodd" d="M85.2001 14.2898L83.9098 23.6366H86.9784L87.7331 18.1688C88.2422 19.0766 89.1997 19.5512 90.4063 19.5512C92.698 19.5512 95.55 17.8593 96.0393 14.3103C96.4924 11.0297 94.5468 8.82196 91.3349 8.82196C88.2458 8.82196 85.6725 10.8646 85.2001 14.2898ZM92.9472 14.1866C92.745 15.6515 91.6641 16.6625 90.2733 16.6625C88.8819 16.6625 88.0803 15.6515 88.2825 14.1866C88.4848 12.7216 89.5656 11.7106 90.9564 11.7106C92.3478 11.7106 93.1494 12.7216 92.9472 14.1866Z" fill="#00390E"/>
<path d="M100.126 19.5512C97.5281 19.5512 96.044 18.1481 96.2733 16.188H99.301C99.2475 16.7244 99.5995 16.9927 100.438 16.9927C101.379 16.9927 101.732 16.6625 101.791 16.2293C101.879 15.5936 101.25 15.4974 100.417 15.3699L100.414 15.3694C100.355 15.3605 100.296 15.3514 100.236 15.342C98.8737 15.1357 96.6308 14.7849 96.9696 12.3296C97.2543 10.2663 99.0699 8.82196 101.586 8.82196C104.102 8.82196 105.455 10.2869 105.263 12.1232H102.276C102.26 11.6487 101.888 11.3805 101.274 11.3805C100.517 11.3805 100.156 11.7725 100.099 12.1851C100.018 12.7761 100.675 12.8781 101.536 13.0118L101.66 13.0311C103.084 13.2374 105.26 13.6295 104.927 16.0436C104.636 18.1481 102.724 19.5512 100.126 19.5512Z" fill="#00390E"/>
<path d="M117.46 13.547L116.669 19.283H119.737L120.529 13.547C120.717 12.1851 121.437 11.7106 122.358 11.7106C123.258 11.7106 123.847 12.1851 123.659 13.547L122.867 19.283H125.936L126.727 13.547C126.916 12.1851 127.635 11.7106 128.536 11.7106C129.457 11.7106 130.046 12.1851 129.858 13.547L129.066 19.283H132.135L132.927 13.547C133.379 10.2663 131.696 8.82196 129.241 8.82196C127.789 8.82196 126.525 9.37906 125.621 10.452C125.012 9.37906 123.881 8.82196 122.449 8.82196C119.994 8.82196 117.913 10.2663 117.46 13.547Z" fill="#00390E"/>
<path d="M106.061 14.3722C105.586 17.8179 107.351 19.5511 110.338 19.5511C113.325 19.5511 115.572 17.7973 116.045 14.3722L116.773 9.09009H113.705L112.976 14.3722C112.754 15.9816 111.882 16.6624 110.737 16.6624C109.591 16.6624 108.908 15.9816 109.13 14.3722L109.859 9.09009H106.79L106.061 14.3722Z" fill="#00390E"/>
<path fill-rule="evenodd" clip-rule="evenodd" d="M68.4071 14.1866C67.9804 17.2815 69.9177 19.5512 73.1091 19.5512C76.3005 19.5512 78.8636 17.2815 79.2908 14.1866C79.7181 11.0916 77.7809 8.82196 74.5895 8.82196C71.3981 8.82196 68.8344 11.0916 68.4071 14.1866ZM76.1813 14.1866C75.9791 15.6515 74.8982 16.6625 73.5075 16.6625C72.1161 16.6625 71.3145 15.6515 71.5167 14.1866C71.7189 12.7216 72.7997 11.7106 74.1905 11.7106C75.5819 11.7106 76.3835 12.7216 76.1813 14.1866Z" fill="#00390E"/>
<path fill-rule="evenodd" clip-rule="evenodd" d="M58.6366 18.5928C57.397 17.646 56.7823 16.0689 57.042 14.1866C57.469 11.0916 60.0326 8.82196 63.2237 8.82196C66.4151 8.82196 68.3524 11.0916 67.9257 14.1866C67.5128 17.1761 65.1068 19.3956 62.0677 19.5434C62.7832 19.9538 63.8231 20.2856 64.5874 20.5295C64.8426 20.611 65.0671 20.6827 65.2386 20.7442C65.9325 20.9192 66.3754 21.5713 66.2683 22.349C66.1425 23.2608 65.3078 24 64.4033 24H59.4927C57.6845 24 56.4228 22.5216 56.6744 20.698H61.9112C60.7148 20.2313 59.4502 19.2977 58.6366 18.5928ZM62.1423 16.6625C63.5331 16.6625 64.6139 15.6515 64.8161 14.1866C65.0183 12.7216 64.2167 11.7106 62.8253 11.7106C61.4345 11.7106 60.3537 12.7216 60.1515 14.1866C59.9494 15.6515 60.7509 16.6625 62.1423 16.6625Z" fill="#00390E"/>
<path fill-rule="evenodd" clip-rule="evenodd" d="M45.6767 14.1866C45.2496 17.2815 47.1868 19.5512 50.3782 19.5512C53.5696 19.5512 56.1331 17.2815 56.5602 14.1866C56.9873 11.0916 55.0501 8.82196 51.8587 8.82196C48.6673 8.82196 46.1037 11.0916 45.6767 14.1866ZM53.4506 14.1866C53.2485 15.6515 52.1679 16.6625 50.7768 16.6625C49.3856 16.6625 48.5841 15.6515 48.7862 14.1866C48.9884 12.7216 50.069 11.7106 51.4601 11.7106C52.8512 11.7106 53.6528 12.7216 53.4506 14.1866Z" fill="#00390E"/>
<path d="M34.905 19.2829L36.767 5.78882H40.0811L38.6462 16.188H44.9677L44.5405 19.2829H34.905Z" fill="#00390E"/>
</g>
<defs>
<clipPath id="clip0_8_59">
<rect width="133" height="24" fill="white"/>
</clipPath>
</defs>
</svg>
